<svg width="100%" height="100%" viewBox="0 0 200 254" fill="none" xmlns="http://www.w3.org/2000/svg">
<path d="M111.474 15.66C111.47 15.6121 111.47 15.5639 111.474 15.516V15.12C111.474 14.76 111.474 14.25 111.474 13.602C111.474 12.27 111.474 10.35 111.426 7.93801L111.516 8.02801L82.326 8.08201L82.47 7.93801V15.66L82.326 15.51L103.128 15.576L109.266 15.618H110.928H111.348H111.504H111.348H110.934H109.302L103.2 15.66L82.296 15.726H82.146V7.95001C82.44 7.65001 82.23 7.86601 82.296 7.80001L111.486 7.854H111.576V7.95001C111.576 10.386 111.54 12.324 111.528 13.668C111.528 14.31 111.528 14.808 111.528 15.168V15.546C111.512 15.5851 111.494 15.6232 111.474 15.66V15.66Z" fill="#E0E0E0"/>
<path d="M115.434 7.938C115.426 7.88833 115.426 7.83767 115.434 7.788C115.434 7.68 115.434 7.542 115.434 7.38C115.434 6.996 115.434 6.48 115.404 5.832C115.404 4.476 115.374 2.562 115.35 0.21L115.452 0.318L97.914 0.36C97.782 0.492 98.094 0.18 98.064 0.216V4.176C98.064 5.472 98.064 6.726 98.064 7.926L97.92 7.782L110.466 7.848L114.126 7.89H115.11H115.464C115.464 7.89 115.356 7.89 115.14 7.89H114.186L110.586 7.932L97.944 7.998H97.806V7.86C97.806 6.66 97.806 5.406 97.806 4.11V0.15L97.956 0L115.494 0.0419998H115.548V0.144C115.548 2.544 115.506 4.458 115.494 5.832C115.494 6.474 115.494 6.978 115.494 7.356C115.494 7.734 115.44 7.944 115.434 7.938Z" fill="#E0E0E0"/>
<path d="M142.37 247.846C173.91 247.846 199.478 243.183 199.478 237.43C199.478 231.677 173.91 227.014 142.37 227.014C110.83 227.014 85.262 231.677 85.262 237.43C85.262 243.183 110.83 247.846 142.37 247.846Z" fill="#F5F5F5"/>
<path d="M187.964 236.836C187.946 236.674 187.904 236.517 187.838 236.368C187.597 235.954 187.252 235.61 186.836 235.372C185.223 234.479 183.483 233.837 181.676 233.47C177.014 232.312 170.102 231.376 161.528 230.794C151.486 230.14 141.417 229.993 131.36 230.356C125.684 230.56 119.726 230.92 113.588 231.622C110.516 231.976 107.402 232.414 104.282 233.056C102.712 233.367 101.162 233.768 99.638 234.256C98.8721 234.505 98.1294 234.82 97.418 235.198C97.0696 235.382 96.7452 235.607 96.452 235.87C96.1642 236.104 95.9808 236.443 95.942 236.812C95.9581 236.996 96.011 237.174 96.0975 237.337C96.1841 237.5 96.3026 237.644 96.446 237.76C96.7389 238.025 97.0633 238.253 97.412 238.438C98.1219 238.813 98.8626 239.126 99.626 239.374C101.151 239.864 102.704 240.265 104.276 240.574C107.396 241.216 110.516 241.654 113.582 242.014C119.726 242.71 125.684 243.07 131.36 243.274C141.419 243.637 151.49 243.49 161.534 242.836C170.102 242.236 177.014 241.318 181.682 240.166C183.486 239.794 185.224 239.15 186.836 238.258C187.253 238.021 187.599 237.677 187.838 237.262C187.905 237.114 187.947 236.956 187.964 236.794C187.974 236.96 187.941 237.125 187.868 237.274C187.637 237.703 187.292 238.06 186.872 238.306C185.268 239.234 183.526 239.9 181.712 240.28C177.044 241.48 170.126 242.446 161.546 243.058C151.495 243.74 141.416 243.909 131.348 243.562C125.666 243.37 119.702 243.016 113.546 242.314C110.474 241.96 107.348 241.522 104.21 240.874C102.627 240.57 101.064 240.169 99.53 239.674C98.7469 239.42 97.9879 239.096 97.262 238.708C96.8881 238.514 96.5412 238.272 96.23 237.988C96.043 237.855 95.8905 237.679 95.7853 237.475C95.6801 237.271 95.6252 237.045 95.6252 236.815C95.6252 236.585 95.6801 236.359 95.7853 236.155C95.8905 235.951 96.043 235.775 96.23 235.642C96.5464 235.365 96.8925 235.123 97.262 234.922C97.9881 234.536 98.7471 234.214 99.53 233.962C101.064 233.467 102.627 233.066 104.21 232.762C107.348 232.114 110.468 231.676 113.546 231.322C119.696 230.626 125.66 230.272 131.342 230.074C141.41 229.727 151.489 229.896 161.54 230.578C170.114 231.178 177.032 232.162 181.7 233.356C183.514 233.743 185.256 234.409 186.866 235.33C187.286 235.577 187.631 235.933 187.862 236.362C187.936 236.509 187.971 236.672 187.964 236.836Z" fill="#9A8CC6"/>
<path d="M171.548 236.356C171.53 236.257 171.5 236.16 171.458 236.068C171.308 235.813 171.09 235.605 170.828 235.468C169.807 234.905 168.707 234.5 167.564 234.268C163.364 233.365 159.098 232.803 154.808 232.588C149.408 232.234 142.898 232.078 135.71 232.33C132.11 232.456 128.348 232.684 124.466 233.128C122.522 233.356 120.548 233.632 118.58 234.04C117.589 234.242 116.609 234.498 115.646 234.808C115.163 234.967 114.696 235.168 114.248 235.408C113.828 235.636 113.366 235.972 113.342 236.38C113.318 236.788 113.822 237.124 114.248 237.358C114.693 237.6 115.159 237.8 115.64 237.958C116.602 238.273 117.581 238.529 118.574 238.726C120.548 239.14 122.522 239.416 124.46 239.644C128.348 240.088 132.116 240.31 135.71 240.442C142.91 240.694 149.384 240.538 154.808 240.184C159.098 239.969 163.364 239.407 167.564 238.504C168.707 238.272 169.807 237.867 170.828 237.304C171.09 237.167 171.308 236.959 171.458 236.704C171.501 236.611 171.532 236.512 171.548 236.41C171.55 236.515 171.529 236.619 171.488 236.716C171.356 236.991 171.147 237.222 170.888 237.382C169.87 237.97 168.767 238.395 167.618 238.642C163.42 239.599 159.149 240.201 154.85 240.442C148.486 240.884 142.103 240.994 135.728 240.772C132.128 240.652 128.348 240.43 124.448 239.986C122.504 239.764 120.524 239.488 118.532 239.074C117.528 238.873 116.536 238.615 115.562 238.3C115.064 238.141 114.58 237.941 114.116 237.7C113.878 237.571 113.654 237.416 113.45 237.238C113.326 237.148 113.225 237.031 113.156 236.895C113.086 236.759 113.05 236.608 113.05 236.455C113.05 236.302 113.086 236.151 113.156 236.015C113.225 235.879 113.326 235.762 113.45 235.672C113.655 235.493 113.878 235.336 114.116 235.204C114.581 234.965 115.064 234.764 115.562 234.604C116.545 234.285 117.547 234.027 118.562 233.83C120.548 233.416 122.528 233.14 124.478 232.918C128.372 232.474 132.152 232.252 135.752 232.132C142.127 231.91 148.51 232.02 154.874 232.462C159.173 232.703 163.444 233.305 167.642 234.262C168.791 234.51 169.894 234.935 170.912 235.522C171.171 235.682 171.38 235.913 171.512 236.188C171.531 236.242 171.543 236.299 171.548 236.356V236.356Z" fill="#9A8CC6"/>
<path d="M158.294 236.356C158.269 236.26 158.224 236.17 158.16 236.093C158.097 236.017 158.018 235.955 157.928 235.912C157.417 235.632 156.867 235.43 156.296 235.312C154.204 234.881 152.082 234.615 149.948 234.514C147.242 234.346 143.996 234.274 140.408 234.4C138.608 234.472 136.73 234.586 134.792 234.808C133.82 234.922 132.836 235.06 131.852 235.264C131.359 235.363 130.872 235.491 130.394 235.648C130.159 235.722 129.932 235.818 129.716 235.936C129.506 236.044 129.302 236.218 129.296 236.356C129.29 236.494 129.5 236.662 129.71 236.776C129.93 236.889 130.159 236.985 130.394 237.064C130.872 237.219 131.359 237.348 131.852 237.448C132.836 237.652 133.82 237.79 134.792 237.904C136.73 238.126 138.614 238.24 140.408 238.306C144.008 238.438 147.242 238.366 149.954 238.192C152.096 238.088 154.226 237.817 156.326 237.382C156.896 237.261 157.446 237.059 157.958 236.782C158.047 236.739 158.126 236.677 158.189 236.6C158.253 236.523 158.299 236.434 158.324 236.338C158.341 236.389 158.341 236.443 158.324 236.494C158.256 236.637 158.148 236.756 158.012 236.836C157.507 237.138 156.956 237.355 156.38 237.478C154.268 237.981 152.115 238.298 149.948 238.426C146.753 238.652 143.549 238.712 140.348 238.606C138.548 238.546 136.658 238.438 134.708 238.216C133.73 238.108 132.74 237.97 131.744 237.76C131.236 237.662 130.735 237.531 130.244 237.37C129.99 237.29 129.745 237.186 129.512 237.058C129.361 237.003 129.226 236.91 129.121 236.788C129.016 236.666 128.944 236.52 128.912 236.362C128.96 235.96 129.272 235.81 129.512 235.672C129.75 235.549 129.996 235.445 130.25 235.36C130.741 235.204 131.24 235.074 131.744 234.97C132.74 234.766 133.73 234.628 134.708 234.514C136.658 234.292 138.548 234.184 140.348 234.124C143.549 234.016 146.754 234.079 149.948 234.31C152.1 234.432 154.238 234.737 156.338 235.222C156.913 235.349 157.464 235.568 157.97 235.87C158.107 235.949 158.216 236.068 158.282 236.212C158.3 236.258 158.304 236.308 158.294 236.356V236.356Z" fill="#9A8CC6"/>
<path d="M30.688 34.648H12.568V41.812H30.688V34.648Z" fill="#F5F5F5"/>
<path d="M23.452 48.868C23.4458 48.8262 23.4458 48.7838 23.452 48.742C23.452 48.646 23.452 48.52 23.452 48.37C23.452 48.034 23.452 47.566 23.452 46.96C23.452 45.724 23.452 43.96 23.41 41.704L23.482 41.788L1.126 41.842L1.24 41.704V48.856L1.126 48.724L17.056 48.784L21.748 48.826H23.02H23.35H23.47C23.47 48.826 23.434 48.826 23.368 48.826H23.044H21.796L17.122 48.868L1.114 48.928H1V41.716C1.228 41.44 1.066 41.644 1.114 41.578L23.47 41.632H23.548V41.716C23.548 43.978 23.518 45.778 23.512 47.026C23.512 47.626 23.512 48.082 23.512 48.418C23.512 48.562 23.512 48.676 23.512 48.766C23.495 48.8017 23.4749 48.8358 23.452 48.868V48.868Z" fill="#E0E0E0"/>
<path d="M151.688 126.648H133.568V133.812H151.688V126.648Z" fill="#F5F5F5"/>
<path d="M161.452 128.868C161.446 128.826 161.446 128.784 161.452 128.742C161.452 128.646 161.452 128.52 161.452 128.37C161.452 128.034 161.452 127.566 161.452 126.96C161.452 125.724 161.452 123.96 161.41 121.704L161.482 121.788L139.126 121.842L139.24 121.704V128.856L139.126 128.724L155.056 128.784L159.748 128.826H161.02H161.35H161.47C161.47 128.826 161.434 128.826 161.368 128.826H161.044H159.796L155.122 128.868L139.114 128.928H139V121.716C139.228 121.44 139.066 121.644 139.114 121.578L161.47 121.632H161.548V121.716C161.548 123.978 161.518 125.778 161.512 127.026C161.512 127.626 161.512 128.082 161.512 128.418C161.512 128.562 161.512 128.676 161.512 128.766C161.495 128.802 161.475 128.836 161.452 128.868V128.868Z" fill="#E0E0E0"/>
<path d="M145.354 37.36H116.164V45.082H145.354V37.36Z" fill="#F5F5F5"/>
<path d="M133.012 53.218C133.012 53.218 133.012 53.17 133.012 53.08V52.684C133.012 52.318 133.012 51.808 133.012 51.16C133.012 49.828 133.012 47.914 132.958 45.496L133.048 45.586L103.864 45.646C103.924 45.58 103.714 45.79 104.008 45.496V49.426C104.008 50.714 104.008 51.98 104.008 53.224L103.864 53.08L124.666 53.146L130.81 53.188H132.466H132.904H133.054H132.922H132.508H130.876L124.768 53.23L103.864 53.296H103.72V49.426C103.72 48.778 103.72 48.13 103.72 47.476V45.514C104.02 45.214 103.804 45.43 103.876 45.364L133.06 45.424H133.156V45.514C133.156 47.95 133.114 49.888 133.102 51.232C133.102 51.874 133.102 52.372 133.102 52.732C133.102 52.888 133.102 53.014 133.102 53.11C133.102 53.206 133.018 53.218 133.012 53.218Z" fill="#E0E0E0"/>
<path d="M186.338 71.026H157.148V78.748H186.338V71.026Z" fill="#F5F5F5"/>
<path d="M184.482 84.97C184.479 84.924 184.479 84.878 184.482 84.832V84.436C184.482 84.07 184.482 83.566 184.482 82.912C184.482 81.58 184.452 79.666 184.428 77.248L184.518 77.338L155.328 77.398L155.478 77.248V81.16C155.478 82.45 155.478 83.716 155.478 84.958L155.334 84.814L176.136 84.88L182.28 84.922H183.936H184.374H184.482C184.482 84.922 184.44 84.922 184.35 84.922H183.93H182.304L176.196 84.964L155.292 85.03H155.148V84.886C155.148 83.644 155.148 82.378 155.148 81.088V77.176L155.298 77.026L184.488 77.086H184.578V77.176C184.578 79.618 184.542 81.55 184.53 82.894C184.53 83.536 184.53 84.04 184.53 84.394C184.53 84.55 184.53 84.676 184.53 84.778C184.53 84.88 184.482 84.976 184.482 84.97Z" fill="#E0E0E0"/>
<path d="M95 12H41V93H95V12Z" fill="#E0E0E0"/>
<path d="M93 12H39V93H93V12Z" fill="#EBEBEB"/>
<path d="M91 14H41V92H91V14Z" fill="white"/>
<path d="M81 24H51V82H81V24Z" fill="#EBEBEB"/>
<path d="M51.0007 61.4357C50.9284 55.9896 56.33 50.7124 62.2803 49.9554C65.1198 49.5905 68.1341 50.1024 70.7807 49.1167C75.5132 47.3631 77.0203 41.6883 81.783 40L82 82H51.0007V61.4357Z" fill="#E0E0E0"/>
<path d="M143.474 191.66C143.47 191.612 143.47 191.564 143.474 191.516V191.12C143.474 190.76 143.474 190.25 143.474 189.602C143.474 188.27 143.474 186.35 143.426 183.938L143.516 184.028L114.326 184.082L114.47 183.938V191.66L114.326 191.51L135.128 191.576L141.266 191.618H142.928H143.348H143.504H143.348H142.934H141.302L135.2 191.66L114.296 191.726H114.146V183.95C114.44 183.65 114.23 183.866 114.296 183.8L143.486 183.854H143.576V183.95C143.576 186.386 143.54 188.324 143.528 189.668C143.528 190.31 143.528 190.808 143.528 191.168V191.546C143.512 191.585 143.494 191.623 143.474 191.66V191.66Z" fill="#E0E0E0"/>
<path d="M147.434 183.938C147.426 183.888 147.426 183.838 147.434 183.788C147.434 183.68 147.434 183.542 147.434 183.38C147.434 182.996 147.434 182.48 147.404 181.832C147.404 180.476 147.374 178.562 147.35 176.21L147.452 176.318L129.914 176.36C129.782 176.492 130.094 176.18 130.064 176.216V180.176C130.064 181.472 130.064 182.726 130.064 183.926L129.92 183.782L142.466 183.848L146.126 183.89H147.11H147.464C147.464 183.89 147.356 183.89 147.14 183.89H146.186L142.586 183.932L129.944 183.998H129.806V183.86C129.806 182.66 129.806 181.406 129.806 180.11V176.15L129.956 176L147.494 176.042H147.548V176.144C147.548 178.544 147.506 180.458 147.494 181.832C147.494 182.474 147.494 182.978 147.494 183.356C147.494 183.734 147.44 183.944 147.434 183.938Z" fill="#E0E0E0"/>
<path d="M189 221.5C189 221.769 147.94 222 97.3422 222C46.7449 222 5.67603 221.808 5.67603 221.5C5.67603 221.192 46.711 221 97.3422 221C147.973 221 189 221.25 189 221.5Z" fill="#263238"/>
<path d="M157.806 171.044C158.011 171.567 158.099 172.128 158.064 172.688C158.198 172.028 158.452 171.397 158.814 170.828C158.946 170.618 159.162 170.39 159.414 170.45C159.666 170.51 159.738 170.816 159.744 171.05C159.768 171.746 159.613 172.436 159.294 173.054C159.744 172.486 160.324 172.035 160.986 171.74C161.041 171.708 161.102 171.688 161.165 171.683C161.229 171.678 161.293 171.687 161.352 171.71C161.407 171.762 161.446 171.829 161.465 171.902C161.484 171.975 161.482 172.052 161.46 172.124C161.365 172.708 161.121 173.258 160.751 173.719C160.381 174.181 159.897 174.539 159.348 174.758L158.994 174.812C158.222 174.6 157.558 174.105 157.135 173.426C156.711 172.747 156.559 171.933 156.708 171.146C156.762 170.852 156.93 170.51 157.23 170.504C157.53 170.498 157.704 170.798 157.806 171.044Z" fill="#9A8CC6"/>
<path d="M165.834 187.094C164.793 186.433 163.64 185.968 162.432 185.72C163.15 183.268 163.184 180.666 162.528 178.196C162.3 177.212 161.867 176.288 161.256 175.484C160.949 175.085 160.565 174.752 160.125 174.507C159.686 174.261 159.201 174.108 158.7 174.056C158.157 174.047 157.619 174.162 157.127 174.39C156.634 174.619 156.2 174.956 155.856 175.376L154.602 178.28C154.528 178.703 154.478 179.13 154.452 179.558C154.303 182.386 154.938 185.199 156.288 187.688C154.974 189.128 153.558 191.618 153.984 194.504H168.906C169.17 191.738 168.114 188.738 165.834 187.094Z" fill="#455A64"/>
<path d="M155.622 188.612C155.652 188.553 155.69 188.498 155.736 188.45C155.848 188.3 155.97 188.157 156.102 188.024C156.586 187.52 157.145 187.093 157.758 186.758C158.666 186.253 159.665 185.933 160.698 185.816C161.971 185.65 163.264 185.83 164.443 186.338C165.622 186.846 166.641 187.663 167.394 188.702C168.02 189.532 168.475 190.479 168.732 191.486C168.906 192.164 168.978 192.863 168.948 193.562C168.938 193.749 168.918 193.935 168.888 194.12C168.884 194.188 168.87 194.255 168.846 194.318C168.902 193.38 168.811 192.438 168.576 191.528C168.303 190.55 167.844 189.634 167.226 188.828C166.487 187.828 165.495 187.041 164.353 186.549C163.21 186.056 161.957 185.876 160.722 186.026C159.713 186.129 158.734 186.425 157.836 186.896C157.014 187.351 156.268 187.93 155.622 188.612V188.612Z" fill="#263238"/>
<path d="M154.374 180.626C154.328 180.298 154.328 179.965 154.374 179.636C154.398 178.835 154.536 178.041 154.782 177.278C155.03 176.505 155.468 175.806 156.054 175.244C156.288 175.001 156.579 174.819 156.9 174.716C156.9 174.746 156.582 174.932 156.168 175.358C155.628 175.927 155.219 176.607 154.968 177.35C154.734 178.098 154.581 178.868 154.512 179.648C154.498 179.978 154.452 180.306 154.374 180.626V180.626Z" fill="#263238"/>
<path d="M163.002 192.608C163.912 191.64 164.856 190.706 165.834 189.806C165.08 190.914 164.118 191.866 163.002 192.608V192.608Z" fill="#263238"/>
<path d="M161.34 191.738C161.347 191.235 161.428 190.736 161.58 190.256C161.665 189.76 161.82 189.28 162.042 188.828C162.035 189.331 161.954 189.831 161.802 190.31C161.72 190.807 161.565 191.288 161.34 191.738Z" fill="#263238"/>
<path d="M156.906 190.082C157.282 190.467 157.573 190.927 157.758 191.432C158.013 191.903 158.168 192.422 158.214 192.956C157.952 192.498 157.729 192.018 157.548 191.522C157.298 191.059 157.083 190.578 156.906 190.082V190.082Z" fill="#263238"/>
<path d="M161.7 183.11C162.308 182.051 163.048 181.073 163.902 180.2C163.629 180.749 163.288 181.261 162.888 181.724C162.55 182.233 162.151 182.698 161.7 183.11V183.11Z" fill="#263238"/>
<path d="M160.644 178.442C161.345 177.163 162.174 175.956 163.116 174.842C162.804 175.503 162.421 176.129 161.976 176.708C161.594 177.331 161.147 177.912 160.644 178.442V178.442Z" fill="#263238"/>
<path d="M158.964 179.666C159.109 180.182 159.182 180.715 159.18 181.25C159.258 181.779 159.258 182.317 159.18 182.846C158.966 181.801 158.9 180.73 158.982 179.666H158.964Z" fill="#263238"/>
<path d="M152.262 181.79C153.01 182.063 153.722 182.428 154.38 182.876C155.077 183.259 155.726 183.724 156.312 184.262C155.601 183.909 154.916 183.508 154.26 183.062C153.565 182.685 152.898 182.26 152.262 181.79V181.79Z" fill="#263238"/>
<g opacity="0.3">
<path d="M157.632 185.81C158.373 185.422 159.196 185.217 160.032 185.21C160.902 185.168 161.874 185.258 162.462 185.9V185.93C160.258 185.797 158.082 186.478 156.348 187.844C156.369 187.423 156.498 187.015 156.723 186.659C156.948 186.302 157.261 186.01 157.632 185.81V185.81Z" fill="black"/>
</g>
<path d="M164.748 156.5C165.177 156.385 165.626 156.369 166.062 156.452C165.557 156.285 165.087 156.027 164.676 155.69C164.52 155.564 164.364 155.378 164.436 155.192C164.508 155.006 164.754 154.976 164.952 154.994C165.497 155.042 166.02 155.23 166.47 155.54C166.071 155.132 165.775 154.634 165.606 154.088C165.582 154.044 165.57 153.994 165.57 153.944C165.57 153.894 165.582 153.845 165.606 153.8C165.678 153.71 165.822 153.722 165.936 153.752C166.383 153.878 166.79 154.117 167.118 154.446C167.446 154.775 167.683 155.183 167.808 155.63V155.912C167.571 156.492 167.125 156.962 166.559 157.229C165.992 157.497 165.347 157.543 164.748 157.358C164.52 157.286 164.268 157.118 164.292 156.884C164.316 156.65 164.52 156.554 164.748 156.5Z" fill="#9A8CC6"/>
<path d="M194.826 137.426C194.9 137.87 194.874 138.326 194.748 138.758C194.954 138.27 195.249 137.825 195.618 137.444C195.756 137.3 195.96 137.162 196.134 137.246C196.308 137.33 196.326 137.582 196.29 137.78C196.197 138.319 195.967 138.825 195.624 139.25C196.06 138.883 196.579 138.628 197.136 138.506C197.183 138.488 197.234 138.482 197.285 138.488C197.335 138.494 197.383 138.513 197.424 138.542C197.455 138.592 197.471 138.649 197.471 138.707C197.471 138.766 197.455 138.823 197.424 138.872C197.262 139.307 196.991 139.693 196.637 139.992C196.283 140.292 195.858 140.495 195.402 140.582H195.114C194.56 140.291 194.133 139.806 193.914 139.22C193.704 138.636 193.717 137.995 193.95 137.42C194.04 137.198 194.22 136.958 194.454 137.006C194.688 137.054 194.784 137.216 194.826 137.426Z" fill="#9A8CC6"/>
<path d="M173.868 176.45C174.09 176.45 174.3 176.486 174.51 176.504C174.894 172.238 173.604 167.912 174.906 163.838L174.732 164.06C173.163 164.307 171.558 164.163 170.058 163.64C169.31 163.375 168.625 162.959 168.043 162.42C167.461 161.88 166.995 161.228 166.674 160.502C166.363 159.772 166.266 158.968 166.393 158.184C166.521 157.4 166.868 156.669 167.394 156.074C168.87 154.532 171.468 154.61 173.316 155.672C175.164 156.734 176.358 158.42 177.516 160.118C178.13 159.615 178.818 159.21 179.556 158.918C177.498 156.086 175.506 153.116 174.858 149.69C174.168 145.958 175.548 141.542 179.04 139.958C181.998 138.626 185.706 139.832 187.794 142.316C187.956 142.508 188.094 142.718 188.238 142.916L188.172 142.712C188.684 141.395 189.692 140.331 190.98 139.748C191.625 139.471 192.324 139.345 193.025 139.379C193.726 139.414 194.409 139.607 195.024 139.946C195.629 140.298 196.131 140.804 196.478 141.412C196.826 142.019 197.007 142.708 197.004 143.408C196.943 144.196 196.673 144.954 196.222 145.602C195.77 146.251 195.154 146.767 194.436 147.098C193.045 147.717 191.49 147.863 190.008 147.512C190.206 148.829 190.206 150.168 190.008 151.484C189.446 154.453 188.302 157.282 186.642 159.806C187.075 160.099 187.477 160.435 187.842 160.808C190.524 163.616 190.698 168.122 189.288 171.74C187.878 175.358 184.08 178.028 181.44 180.878C182.521 182.849 183.21 185.011 183.468 187.244C183.932 186.279 184.655 185.461 185.557 184.883C186.459 184.305 187.503 183.988 188.574 183.968C189.726 183.968 191.016 184.49 191.376 185.582C191.688 186.548 191.16 187.592 190.47 188.342C189.601 189.213 188.526 189.851 187.345 190.197C186.165 190.543 184.916 190.586 183.714 190.322V189.614C183.807 191.237 183.769 192.864 183.6 194.48H166.548C166.548 194.48 161.982 176.012 173.868 176.45Z" fill="#455A64"/>
<path d="M147.012 201.644H187.302V194.504H147.012V201.644Z" fill="#9A8CC6"/>
<path d="M184.296 200.228L179.394 221.57H155.382L150.018 200.228H184.296Z" fill="#9A8CC6"/>
<path d="M147.036 201.656C147.036 201.734 156.12 201.794 167.328 201.794C178.536 201.794 187.626 201.734 187.626 201.656C187.626 201.578 178.542 201.512 167.328 201.512C156.114 201.512 147.036 201.578 147.036 201.656Z" fill="#263238"/>
<path d="M170.712 177.158C170.784 177.105 170.863 177.06 170.946 177.026C171.174 176.906 171.41 176.804 171.654 176.72C172.556 176.422 173.51 176.314 174.456 176.402C175.864 176.528 177.219 177.002 178.398 177.782C179.827 178.761 180.992 180.078 181.788 181.616C182.594 183.138 183.143 184.782 183.414 186.482C183.616 187.873 183.706 189.277 183.684 190.682C183.684 191.882 183.642 192.83 183.618 193.496C183.618 193.808 183.618 194.06 183.582 194.264C183.592 194.352 183.592 194.441 183.582 194.528C183.574 194.44 183.574 194.352 183.582 194.264C183.582 194.06 183.582 193.808 183.582 193.496V190.658C183.577 189.27 183.469 187.884 183.258 186.512C182.988 184.834 182.442 183.213 181.644 181.712C180.864 180.206 179.73 178.913 178.338 177.944C177.189 177.173 175.869 176.693 174.492 176.546C173.565 176.449 172.627 176.532 171.732 176.792C171.048 176.996 170.748 177.158 170.712 177.158Z" fill="#263238"/>
<path d="M174.312 168.11C174.293 168.046 174.283 167.979 174.282 167.912C174.282 167.78 174.252 167.582 174.282 167.312C174.302 165.517 174.799 163.759 175.722 162.218C176.041 161.673 176.424 161.168 176.862 160.712C177.326 160.211 177.864 159.784 178.458 159.446C179.051 159.108 179.693 158.861 180.36 158.714C180.982 158.592 181.617 158.546 182.25 158.576C183.317 158.641 184.364 158.891 185.346 159.314C186.01 159.589 186.644 159.933 187.236 160.34C187.446 160.478 187.596 160.604 187.704 160.688C187.812 160.772 187.86 160.814 187.854 160.82C187.624 160.698 187.402 160.561 187.188 160.412C186.582 160.041 185.946 159.722 185.286 159.458C184.314 159.066 183.284 158.839 182.238 158.786C181.623 158.764 181.007 158.812 180.402 158.93C179.758 159.077 179.14 159.318 178.566 159.644C177.995 159.965 177.476 160.37 177.024 160.844C176.594 161.288 176.215 161.779 175.896 162.308C175.352 163.204 174.948 164.177 174.696 165.194C174.522 165.882 174.416 166.586 174.378 167.294C174.348 167.834 174.348 168.11 174.312 168.11Z" fill="#263238"/>
<path d="M190.14 150.098C190.056 149.647 190.007 149.189 189.996 148.73C189.966 148.304 189.918 147.806 189.828 147.26C189.74 146.667 189.579 146.086 189.348 145.532C188.92 144.519 188.398 143.549 187.788 142.634C187.326 141.926 186.972 141.542 186.996 141.518C187.02 141.494 187.11 141.59 187.278 141.764C187.508 142.011 187.722 142.271 187.92 142.544C188.577 143.443 189.127 144.416 189.558 145.442C189.799 146.017 189.958 146.623 190.032 147.242C190.104 147.737 190.146 148.236 190.158 148.736C190.188 149.19 190.182 149.645 190.14 150.098V150.098Z" fill="#263238"/>
<path d="M187.944 188.384C188.762 188.897 189.495 189.534 190.116 190.274C189.688 190.046 189.296 189.757 188.952 189.416C188.563 189.128 188.223 188.78 187.944 188.384V188.384Z" fill="#263238"/>
<path d="M189.348 186.962C189.815 186.807 190.302 186.72 190.794 186.704C191.279 186.626 191.773 186.626 192.258 186.704C191.308 186.945 190.327 187.04 189.348 186.986V186.962Z" fill="#263238"/>
<path d="M188.286 184.448C188.528 184.057 188.799 183.684 189.096 183.332C189.337 182.938 189.61 182.565 189.912 182.216C189.803 182.676 189.587 183.104 189.282 183.464C189.036 183.869 188.694 184.207 188.286 184.448V184.448Z" fill="#263238"/>
<path d="M186.384 183.296C186.368 183.855 186.279 184.41 186.12 184.946C186.029 185.497 185.866 186.034 185.634 186.542C185.646 185.983 185.735 185.428 185.898 184.892C185.984 184.34 186.147 183.802 186.384 183.296V183.296Z" fill="#263238"/>
<path d="M185.106 189.05C185.064 189.008 185.334 188.696 185.706 188.36C186.078 188.024 186.42 187.79 186.462 187.832C186.504 187.874 186.234 188.192 185.862 188.528C185.49 188.864 185.148 189.098 185.106 189.05Z" fill="#263238"/>
<path d="M179.184 187.958C179.366 187.604 179.615 187.289 179.916 187.028C180.366 186.566 180.762 186.218 180.81 186.26C180.628 186.614 180.379 186.93 180.078 187.19C179.634 187.64 179.232 187.958 179.184 187.958Z" fill="#263238"/>
<path d="M177.9 182.468C178.014 182.07 178.199 181.696 178.446 181.364C178.631 180.991 178.881 180.654 179.184 180.368C179.072 180.769 178.887 181.145 178.638 181.478C178.456 181.851 178.206 182.187 177.9 182.468Z" fill="#263238"/>
<path d="M174.132 178.016C174.248 178.481 174.292 178.96 174.264 179.438C174.307 179.914 174.275 180.394 174.168 180.86C174.053 180.398 174.008 179.92 174.036 179.444C173.99 178.966 174.023 178.484 174.132 178.016V178.016Z" fill="#263238"/>
<path d="M166.218 179.558C166.63 179.964 167.008 180.403 167.346 180.872C167.74 181.292 168.099 181.744 168.42 182.222C167.935 181.901 167.512 181.494 167.172 181.022C166.772 180.593 166.449 180.098 166.218 179.558V179.558Z" fill="#263238"/>
<path d="M165.204 187.298C165.679 187.275 166.155 187.328 166.614 187.454C167.087 187.509 167.548 187.637 167.982 187.832C167.507 187.859 167.03 187.806 166.572 187.676C166.099 187.624 165.637 187.497 165.204 187.298Z" fill="#263238"/>
<path d="M173.412 190.004C173.485 189.454 173.671 188.925 173.958 188.45C174.173 187.94 174.489 187.479 174.888 187.094C174.404 188.068 173.912 189.038 173.412 190.004V190.004Z" fill="#263238"/>
<path d="M170.676 186.278C170.557 185.906 170.511 185.515 170.538 185.126C170.491 184.74 170.52 184.349 170.622 183.974C170.745 184.345 170.793 184.736 170.766 185.126C170.809 185.512 170.778 185.903 170.676 186.278V186.278Z" fill="#263238"/>
<path d="M179.508 192.848C179.561 192.413 179.727 192 179.988 191.648C180.185 191.257 180.478 190.922 180.84 190.676C180.656 191.061 180.435 191.426 180.18 191.768C179.99 192.148 179.765 192.51 179.508 192.848V192.848Z" fill="#263238"/>
<path d="M170.148 193.388C169.887 193.057 169.684 192.684 169.548 192.284C169.344 191.911 169.208 191.505 169.146 191.084C169.621 191.782 169.964 192.561 170.16 193.382L170.148 193.388Z" fill="#263238"/>
<path d="M184.698 176.066C185.214 175.969 185.742 175.947 186.264 176C186.787 175.98 187.311 176.036 187.818 176.168C187.301 176.262 186.774 176.282 186.252 176.228C185.729 176.245 185.206 176.191 184.698 176.066V176.066Z" fill="#263238"/>
<path d="M188.1 170.252C188.546 169.792 189.048 169.388 189.594 169.052C190.098 168.652 190.645 168.31 191.226 168.032C190.776 168.491 190.272 168.894 189.726 169.232C189.225 169.633 188.679 169.975 188.1 170.252V170.252Z" fill="#263238"/>
<path d="M187.746 162.758C188.125 162.46 188.526 162.191 188.946 161.954C189.324 161.653 189.725 161.382 190.146 161.144C189.517 161.92 188.665 162.484 187.704 162.758H187.746Z" fill="#263238"/>
<path d="M183.948 160.142C184.093 158.911 184.389 157.701 184.83 156.542C184.794 157.153 184.683 157.758 184.5 158.342C184.397 158.964 184.212 159.57 183.948 160.142V160.142Z" fill="#263238"/>
<path d="M177.576 158.264C177.887 158.581 178.139 158.951 178.32 159.356C178.566 159.723 178.749 160.129 178.86 160.556C178.554 160.237 178.304 159.867 178.122 159.464C177.875 159.097 177.691 158.691 177.576 158.264Z" fill="#263238"/>
<path d="M172.098 170.858C172.14 170.81 172.866 171.368 173.82 171.95C174.774 172.532 175.59 172.946 175.566 173.006C174.898 172.831 174.266 172.539 173.7 172.142C173.092 171.816 172.549 171.38 172.098 170.858Z" fill="#263238"/>
<path d="M180.984 173.696C181.665 173.094 182.445 172.613 183.288 172.274C182.603 172.871 181.824 173.351 180.984 173.696V173.696Z" fill="#263238"/>
<path d="M182.472 167.666C182.424 167.618 183 167.066 183.534 166.232C184.068 165.398 184.362 164.66 184.428 164.684C184.331 165.289 184.091 165.861 183.726 166.352C183.423 166.887 182.992 167.339 182.472 167.666V167.666Z" fill="#263238"/>
<path d="M179.556 166.31C179.463 165.828 179.447 165.334 179.508 164.846C179.494 164.358 179.555 163.87 179.688 163.4C179.781 163.881 179.797 164.373 179.736 164.858C179.749 165.348 179.689 165.838 179.556 166.31V166.31Z" fill="#263238"/>
<path d="M177.948 172.262C177.78 171.787 177.685 171.29 177.666 170.786C177.569 170.292 177.548 169.786 177.606 169.286C177.77 169.762 177.865 170.259 177.888 170.762C177.982 171.256 178.002 171.762 177.948 172.262V172.262Z" fill="#263238"/>
<path d="M173.436 154.322C173.631 154.867 173.789 155.424 173.91 155.99C174.104 156.534 174.264 157.089 174.39 157.652C174.054 157.17 173.817 156.625 173.694 156.05C173.496 155.497 173.408 154.91 173.436 154.322V154.322Z" fill="#263238"/>
<path d="M170.262 164.78C170.674 164.432 171.109 164.111 171.564 163.82C171.978 163.474 172.417 163.159 172.878 162.878C172.556 163.33 172.148 163.713 171.678 164.006C171.263 164.357 170.781 164.62 170.262 164.78V164.78Z" fill="#263238"/>
<path d="M165.948 161.558C166.468 161.407 167 161.299 167.538 161.234C168.062 161.099 168.596 161.003 169.134 160.946C168.141 161.415 167.044 161.621 165.948 161.546V161.558Z" fill="#263238"/>
<path d="M170.148 157.958C170.178 157.904 170.586 158.102 171.054 158.402C171.522 158.702 171.876 159.002 171.84 159.044C171.509 158.96 171.201 158.807 170.934 158.594C170.466 158.318 170.112 158.036 170.148 157.958Z" fill="#263238"/>
<path d="M168.054 154.106C168.463 154.301 168.817 154.594 169.086 154.958C169.409 155.276 169.649 155.667 169.788 156.098C169.465 155.797 169.171 155.466 168.912 155.108C168.594 154.803 168.307 154.467 168.054 154.106V154.106Z" fill="#263238"/>
<path d="M165.198 157.802C165.696 157.877 166.186 157.997 166.662 158.162C167.159 158.259 167.647 158.4 168.12 158.582C167.608 158.621 167.093 158.554 166.608 158.384C166.105 158.284 165.626 158.086 165.198 157.802V157.802Z" fill="#263238"/>
<path d="M184.974 152.828C184.926 152.792 185.574 151.946 186.258 150.866C186.66 150.195 187.099 149.546 187.572 148.922C187.292 149.659 186.915 150.355 186.45 150.992C186.047 151.671 185.55 152.289 184.974 152.828V152.828Z" fill="#263238"/>
<path d="M183.702 148.31C183.665 147.744 183.701 147.175 183.81 146.618C183.844 146.053 183.957 145.496 184.146 144.962C184.183 145.527 184.146 146.093 184.038 146.648C184 147.215 183.887 147.774 183.702 148.31V148.31Z" fill="#263238"/>
<path d="M179.31 149.012C179.376 149.012 179.562 149.87 179.994 150.866C180.426 151.862 180.93 152.594 180.876 152.636C180.394 152.162 180.021 151.589 179.784 150.956C179.483 150.352 179.321 149.688 179.31 149.012V149.012Z" fill="#263238"/>
<path d="M174.15 150.104C174.198 150.062 174.84 150.824 175.728 151.652C176.616 152.48 177.408 153.086 177.372 153.14C176.701 152.806 176.093 152.359 175.572 151.82C175.002 151.335 174.521 150.754 174.15 150.104V150.104Z" fill="#263238"/>
<path d="M176.148 140.732C176.214 140.732 176.412 141.674 176.748 142.814C177.084 143.954 177.468 144.854 177.408 144.884C177.006 144.269 176.708 143.592 176.526 142.88C176.285 142.189 176.158 141.464 176.148 140.732Z" fill="#263238"/>
<path d="M182.094 137.648C182.237 138.193 182.307 138.753 182.304 139.316C182.378 139.874 182.378 140.439 182.304 140.996C182.154 140.453 182.081 139.892 182.088 139.328C182.01 138.771 182.012 138.205 182.094 137.648V137.648Z" fill="#263238"/>
<path d="M194.364 145.574C194.792 145.565 195.22 145.595 195.642 145.664C196.071 145.662 196.499 145.702 196.92 145.784C196.504 145.927 196.058 145.964 195.624 145.892C195.184 145.897 194.75 145.787 194.364 145.574Z" fill="#263238"/>
<path d="M194.004 142.478C194.55 142.062 195.139 141.706 195.762 141.416C196.349 141.063 196.973 140.776 197.622 140.558C197.076 140.975 196.487 141.331 195.864 141.62C195.277 141.973 194.653 142.261 194.004 142.478V142.478Z" fill="#263238"/>
<path d="M190.686 142.592C190.858 141.523 191.183 140.484 191.652 139.508C191.6 140.047 191.473 140.576 191.274 141.08C191.146 141.608 190.948 142.116 190.686 142.592Z" fill="#263238"/>
<g opacity="0.3">
<path d="M181.392 180.92C181.361 180.097 181.14 179.293 180.745 178.57C180.351 177.848 179.794 177.227 179.118 176.756C177.78 175.85 175.362 175.766 174.414 176.438C175.903 176.48 177.343 176.977 178.542 177.86C179.669 178.7 180.635 179.736 181.392 180.92" fill="black"/>
</g>
<g opacity="0.3">
<path d="M186.642 160.142C186.335 159.499 185.882 158.935 185.32 158.497C184.758 158.059 184.101 157.757 183.402 157.616C182.022 157.364 180.072 158.132 179.556 158.996C180.752 158.514 182.067 158.409 183.324 158.696C184.507 158.977 185.631 159.466 186.642 160.142" fill="black"/>
</g>
<g opacity="0.3">
<path d="M190.116 147.788C190.386 147.314 190.546 146.786 190.585 146.241C190.623 145.697 190.539 145.151 190.338 144.644C190.139 144.185 189.831 143.781 189.441 143.468C189.051 143.154 188.591 142.94 188.1 142.844C189.168 144.392 190.008 145.97 190.086 147.848" fill="black"/>
</g>
<path d="M168.624 178.13C168.624 178.13 168.444 178.292 168.162 178.622C167.772 179.098 167.433 179.613 167.148 180.158C166.303 181.996 165.803 183.972 165.672 185.99C165.542 188.011 165.643 190.04 165.972 192.038C166.092 192.806 166.206 193.43 166.29 193.838C166.34 194.059 166.374 194.284 166.392 194.51C166.302 194.302 166.236 194.085 166.194 193.862C166.086 193.436 165.942 192.818 165.798 192.062C165.416 190.054 165.291 188.006 165.426 185.966C165.553 183.915 166.087 181.91 166.998 180.068C167.305 179.528 167.678 179.028 168.108 178.58C168.25 178.399 168.425 178.246 168.624 178.13V178.13Z" fill="#263238"/>
<path d="M187.302 194.504H187.182H186.822H185.436L180.348 194.558L163.578 194.594L147.006 194.564L147.084 194.48C147.084 196.676 147.084 198.458 147.084 199.712C147.084 200.316 147.084 200.79 147.084 201.134C147.084 201.284 147.084 201.41 147.084 201.506C147.084 201.602 147.084 201.632 147.084 201.632C147.084 201.632 147.084 201.59 147.084 201.506V201.134C147.084 200.792 147.084 200.318 147.054 199.712C147.054 198.458 147.024 196.676 147 194.48V194.402H147.084L163.656 194.366L180.426 194.402L185.508 194.438H186.894H187.254C187.272 194.459 187.288 194.481 187.302 194.504Z" fill="#263238"/>
<path d="M44.328 89.366C44.3292 89.8554 44.1851 90.3342 43.9139 90.7416C43.6427 91.1491 43.2567 91.4668 42.8048 91.6547C42.3529 91.8425 41.8553 91.892 41.3752 91.7968C40.8952 91.7016 40.4541 91.466 40.1081 91.12C39.762 90.7739 39.5264 90.3329 39.4312 89.8528C39.336 89.3727 39.3855 88.8752 39.5734 88.4232C39.7612 87.9713 40.079 87.5853 40.4864 87.3141C40.8938 87.0429 41.3726 86.8988 41.862 86.9C42.1859 86.9 42.5065 86.9638 42.8057 87.0877C43.1049 87.2116 43.3768 87.3933 43.6058 87.6223C43.8347 87.8513 44.0164 88.1231 44.1403 88.4223C44.2642 88.7215 44.328 89.0422 44.328 89.366V89.366Z" fill="white"/>
<path d="M44.328 89.366C44.328 89.366 44.328 89.15 44.196 88.766C44.0409 88.2512 43.7229 87.8007 43.29 87.482C42.9426 87.2245 42.5306 87.0686 42.0999 87.0316C41.6691 86.9946 41.2365 87.0779 40.8504 87.2723C40.4642 87.4668 40.1397 87.7646 39.9129 88.1327C39.6861 88.5008 39.566 88.9247 39.566 89.357C39.566 89.7893 39.6861 90.2132 39.9129 90.5813C40.1397 90.9494 40.4642 91.2472 40.8504 91.4417C41.2365 91.6361 41.6691 91.7195 42.0999 91.6824C42.5306 91.6454 42.9426 91.4895 43.29 91.232C43.7246 90.9124 44.0428 90.4594 44.196 89.942C44.304 89.576 44.304 89.342 44.328 89.342C44.3788 89.5388 44.3788 89.7452 44.328 89.942C44.216 90.5231 43.8934 91.0423 43.422 91.4C43.0813 91.6688 42.678 91.8467 42.2499 91.9171C41.8217 91.9874 41.3826 91.9478 40.974 91.802C40.4642 91.6248 40.0224 91.2934 39.7096 90.8536C39.3969 90.4138 39.2289 89.8876 39.2289 89.348C39.2289 88.8084 39.3969 88.2822 39.7096 87.8424C40.0224 87.4026 40.4642 87.0712 40.974 86.894C41.3832 86.7496 41.8224 86.7113 42.2505 86.7827C42.6786 86.854 43.0816 87.0327 43.422 87.302C43.8805 87.6553 44.1959 88.1625 44.31 88.73C44.3749 88.9362 44.3811 89.1564 44.328 89.366Z" fill="#263238"/>
<path d="M26.076 92.378C28.8584 92.1269 31.5038 91.0562 33.6777 89.3015C35.8515 87.5468 37.4562 85.1868 38.2887 82.5201C39.1212 79.8533 39.1442 76.9996 38.3547 74.3198C37.5652 71.64 35.9987 69.2545 33.8534 67.465C31.708 65.6755 29.0802 64.5625 26.3022 64.2666C23.5242 63.9708 20.7209 64.5054 18.2468 65.8028C15.7727 67.1003 13.7389 69.1023 12.4027 71.5557C11.0665 74.0092 10.4879 76.8037 10.74 79.586C10.9059 81.4334 11.4343 83.2299 12.295 84.8729C13.1557 86.5159 14.3319 87.9731 15.7562 89.1612C17.1806 90.3493 18.8252 91.2449 20.5959 91.7969C22.3667 92.3488 24.2289 92.5463 26.076 92.378V92.378Z" fill="white"/>
<path d="M26.076 92.378C26.0016 92.3976 25.925 92.4077 25.848 92.408L25.176 92.45H24.684C24.498 92.45 24.3 92.45 24.084 92.45C23.5851 92.4433 23.0876 92.3972 22.596 92.312C21.2363 92.1147 19.915 91.71 18.678 91.112C15.683 89.6969 13.2778 87.2782 11.8794 84.2754C10.481 81.2726 10.1777 77.875 11.022 74.672C11.1907 74.0138 11.4052 73.3682 11.664 72.74C12.4868 70.7696 13.7538 69.016 15.366 67.616C16.4733 66.6211 17.7334 65.8108 19.098 65.216C21.928 63.9664 25.0903 63.6818 28.098 64.406C29.5472 64.7425 30.9328 65.3097 32.202 66.086C33.4382 66.8149 34.5486 67.7388 35.49 68.822C35.9514 69.34 36.3764 69.8893 36.762 70.466C37.1303 71.042 37.4571 71.6435 37.74 72.266C38.8179 74.578 39.2531 77.1377 39 79.676C38.7993 81.6842 38.1739 83.6269 37.1653 85.375C36.1568 87.1232 34.7881 88.637 33.15 89.816C32.0397 90.6239 30.8112 91.2554 29.508 91.688C29.0393 91.8596 28.5578 91.994 28.068 92.09C27.858 92.138 27.666 92.192 27.468 92.222L26.976 92.288L26.304 92.366H26.076L26.304 92.318L26.964 92.21L27.45 92.132C27.63 92.096 27.822 92.042 28.05 91.988C28.5331 91.8783 29.0082 91.7359 29.472 91.562C30.7607 91.1123 31.9743 90.4711 33.072 89.66C34.5106 88.5952 35.7325 87.2653 36.672 85.742C37.8291 83.898 38.5361 81.8077 38.736 79.64C38.9649 77.1499 38.5259 74.6439 37.464 72.38C37.1832 71.7761 36.8604 71.1927 36.498 70.634C36.1189 70.0704 35.7019 69.5331 35.25 69.026C34.7856 68.5106 34.2886 68.0256 33.762 67.574C33.2134 67.1331 32.6339 66.7321 32.028 66.374C30.7863 65.6154 29.4311 65.0603 28.014 64.73C26.5519 64.4041 25.0496 64.2969 23.556 64.412C22.0561 64.5591 20.5874 64.9334 19.2 65.522C17.8838 66.1042 16.6687 66.892 15.6 67.856C15.0709 68.3261 14.5719 68.8291 14.106 69.362C13.6718 69.9051 13.2711 70.4742 12.906 71.066C12.1919 72.2067 11.6595 73.4516 11.328 74.756C10.725 77.017 10.7003 79.3933 11.2559 81.6663C11.8116 83.9394 12.9299 86.0362 14.508 87.764C15.713 89.0949 17.1636 90.1807 18.78 90.962C20.0002 91.5544 21.3029 91.959 22.644 92.162C23.1314 92.2531 23.6246 92.3093 24.12 92.33C24.33 92.33 24.528 92.366 24.72 92.366H25.212H25.884L26.076 92.378Z" fill="#263238"/>
<path d="M24.834 83.39L19.098 79.148L20.58 77.15L24.426 79.988L29.676 73.682L31.584 75.272L24.834 83.39Z" fill="#9A8CC6"/>
<path d="M29.196 204.902L26.136 230.846H30.834L39.246 204.902H29.196Z" fill="#E0E0E0"/>
<path d="M46.35 194.966L43.296 220.91H47.994L56.406 194.966H46.35Z" fill="#E0E0E0"/>
<path d="M109.86 204.902L113.196 230.846H108.078L98.9041 204.902H109.86Z" fill="#E0E0E0"/>
<path d="M93.918 195.602L97.254 221.546H92.136L82.962 195.602H93.918Z" fill="#E0E0E0"/>
<path d="M43.254 109.496C43.254 109.496 30.414 110.402 21.804 114.83C15.048 118.31 11.76 123.188 10.404 135.452C9.04802 147.716 0.456019 150.23 0.234019 154.43C0.0180189 158.528 2.11802 176.03 17.214 211.088C17.5538 211.875 18.1166 212.546 18.8331 213.017C19.5496 213.489 20.3884 213.74 21.246 213.74H73.566V108.674L43.254 109.496Z" fill="#455A64"/>
<path d="M93.102 109.496C93.102 109.496 105.942 110.402 114.552 114.83C121.308 118.31 124.596 123.188 125.952 135.452C127.308 147.716 135.9 150.23 136.122 154.43C136.338 158.54 134.226 176.156 118.992 211.43C118.697 212.111 118.209 212.691 117.589 213.098C116.968 213.505 116.242 213.722 115.5 213.722H62.76V108.674L93.102 109.496Z" fill="#455A64"/>
<path d="M106.05 196.118C106.354 196.033 106.666 195.975 106.98 195.944C107.839 195.855 108.707 195.895 109.554 196.064C110.827 196.333 111.991 196.972 112.902 197.9C113.977 199.059 114.78 200.442 115.254 201.95C115.743 203.434 116.079 204.964 116.256 206.516C116.436 207.944 116.508 209.234 116.544 210.32C116.58 211.406 116.544 212.282 116.544 212.888C116.557 213.201 116.537 213.515 116.484 213.824C116.439 213.514 116.419 213.201 116.424 212.888C116.424 212.288 116.37 211.406 116.31 210.332C116.25 209.258 116.154 207.968 115.962 206.558C115.767 205.027 115.428 203.519 114.948 202.052C114.489 200.588 113.718 199.24 112.686 198.104C111.817 197.21 110.709 196.586 109.494 196.304C108.361 196.078 107.201 196.016 106.05 196.118V196.118Z" fill="#263238"/>
<path d="M111.276 181.184C111.276 181.274 91.848 181.34 67.896 181.34C43.944 181.34 24.51 181.274 24.51 181.184C24.51 181.094 43.932 181.028 67.896 181.028C91.86 181.028 111.276 181.1 111.276 181.184Z" fill="#263238"/>
<path d="M28.35 195.374C28.0551 195.431 27.7562 195.465 27.456 195.476C27.168 195.476 26.826 195.584 26.424 195.644C26.226 195.68 26.022 195.758 25.824 195.812C25.5864 195.871 25.3552 195.953 25.134 196.058C24.0287 196.506 23.056 197.229 22.308 198.158C21.4021 199.319 20.7519 200.658 20.4 202.088C20.0435 203.518 19.8423 204.983 19.8 206.456C19.7546 207.656 19.7746 208.858 19.86 210.056C19.932 211.088 20.028 211.916 20.1 212.492C20.1508 212.788 20.1828 213.086 20.196 213.386C20.0887 213.104 20.0161 212.81 19.98 212.51C19.872 211.94 19.74 211.112 19.644 210.074C19.5215 208.864 19.4774 207.648 19.512 206.432C19.5425 204.934 19.7438 203.444 20.112 201.992C20.4609 200.523 21.1241 199.148 22.056 197.96C22.851 196.998 23.8859 196.263 25.056 195.83C25.286 195.732 25.5252 195.658 25.77 195.608C25.983 195.546 26.1993 195.496 26.418 195.458C26.826 195.41 27.18 195.338 27.474 195.338C27.7665 195.321 28.06 195.333 28.35 195.374V195.374Z" fill="#263238"/>
<path d="M28.35 195.374C28.3251 195.33 28.305 195.284 28.29 195.236C28.248 195.122 28.194 194.984 28.134 194.816C27.996 194.444 27.798 193.898 27.588 193.178C27.138 191.75 26.568 189.662 25.89 187.076C25.212 184.49 24.426 181.4 23.55 177.986C22.674 174.572 21.678 170.786 20.496 166.91C19.896 164.972 19.296 163.07 18.516 161.312C18.3428 160.872 18.1424 160.443 17.916 160.028C17.712 159.614 17.484 159.206 17.25 158.828C16.788 158.024 16.344 157.238 15.888 156.488C15.0746 155.042 13.9692 153.781 12.642 152.786C11.4388 151.984 10.0676 151.469 8.63399 151.28C6.54966 150.982 4.42355 151.288 2.50799 152.162C1.8121 152.495 1.1457 152.886 0.515991 153.332C0.515991 153.332 0.551991 153.29 0.623991 153.23L0.97799 152.948C1.43886 152.601 1.93333 152.302 2.45399 152.054C4.38216 151.122 6.54114 150.776 8.66399 151.058C10.1358 151.239 11.5462 151.756 12.786 152.57C14.154 153.575 15.2931 154.86 16.128 156.338C16.602 157.088 17.046 157.88 17.508 158.678C17.742 159.074 17.976 159.482 18.186 159.914C18.4112 160.336 18.6115 160.771 18.786 161.216C19.5453 163.055 20.2102 164.931 20.778 166.838C21.978 170.75 22.944 174.512 23.814 177.938C24.684 181.364 25.452 184.4 26.1 187.022C26.748 189.644 27.3 191.708 27.702 193.142C27.9 193.868 28.074 194.42 28.188 194.792L28.32 195.224C28.3368 195.272 28.3469 195.323 28.35 195.374V195.374Z" fill="#263238"/>
<path d="M96.4201 169.748C96.4201 169.748 96.2401 169.748 95.8861 169.748H94.3081H88.2421H65.9461L50.5501 169.718L42.0001 169.67C40.5241 169.67 39.0301 169.67 37.5241 169.748C37.1557 169.762 36.7887 169.802 36.4261 169.868C36.0746 170 35.7336 170.158 35.4061 170.342C34.7341 170.702 34.0801 171.104 33.4261 171.542C32.1181 172.376 30.8281 173.282 29.5681 174.248C28.2827 175.208 27.0658 176.257 25.9261 177.386C25.3446 177.94 24.851 178.579 24.4621 179.282C24.3844 179.451 24.3357 179.631 24.3181 179.816C24.3403 180.009 24.3785 180.199 24.4321 180.386L24.7261 181.586C25.1221 183.2 25.5481 184.82 25.9741 186.458C26.4001 188.096 26.8621 189.74 27.3121 191.402C27.5521 192.23 27.7861 193.058 28.0261 193.892C28.1521 194.306 28.2781 194.72 28.4221 195.092C28.4221 195.146 28.4581 195.164 28.4701 195.206C28.4821 195.248 28.4701 195.248 28.4701 195.248C28.4701 195.248 28.6681 195.278 28.7761 195.284C28.9861 195.284 29.2081 195.32 29.4241 195.332C32.9101 195.5 36.4621 195.53 40.0501 195.59C54.4141 195.758 68.1001 195.776 80.5501 195.746C86.7721 195.746 92.6881 195.692 98.2201 195.62C100.986 195.578 103.656 195.536 106.224 195.44C106.866 195.44 107.502 195.386 108.12 195.338L108.588 195.296C108.666 195.296 108.732 195.296 108.804 195.26C108.861 195.252 108.913 195.222 108.948 195.176C109.133 194.949 109.277 194.691 109.374 194.414C109.783 193.297 110.126 192.157 110.4 191C111 188.72 111.444 186.53 111.876 184.454C111.984 183.932 112.092 183.422 112.194 182.918C112.326 182.439 112.397 181.945 112.404 181.448C112.208 180.514 111.755 179.654 111.096 178.964C109.932 177.68 108.648 176.511 107.262 175.472C106.002 174.482 104.82 173.624 103.758 172.844C102.858 172.108 101.899 171.447 100.89 170.87C100.129 170.486 99.3227 170.2 98.4901 170.018C97.9785 169.904 97.459 169.83 96.9361 169.796H96.5341H96.3961C96.3961 169.796 96.5821 169.796 96.9361 169.796C97.4627 169.814 97.9868 169.878 98.5021 169.988C99.3348 170.161 100.142 170.441 100.902 170.822C101.925 171.385 102.895 172.04 103.8 172.778C104.868 173.552 106.056 174.404 107.328 175.382C108.726 176.423 110.021 177.594 111.198 178.88C111.884 179.596 112.356 180.49 112.56 181.46C112.56 181.975 112.491 182.487 112.356 182.984C112.254 183.494 112.146 184.004 112.044 184.52C111.612 186.602 111.156 188.798 110.586 191.084C110.305 192.26 109.955 193.418 109.536 194.552C109.428 194.86 109.265 195.147 109.056 195.398C108.991 195.473 108.902 195.524 108.804 195.542C108.725 195.562 108.645 195.576 108.564 195.584L108.09 195.632C107.46 195.68 106.824 195.71 106.182 195.734C103.608 195.836 100.938 195.884 98.1661 195.932C92.6341 196.016 86.7181 196.064 80.4961 196.088C68.0461 196.13 54.3601 196.124 39.9901 195.956C36.3901 195.896 32.8501 195.866 29.3521 195.698C29.1301 195.698 28.9141 195.698 28.6921 195.65L28.3501 195.602C28.2981 195.587 28.2479 195.567 28.2001 195.542C28.1641 195.512 28.1641 195.476 28.1401 195.446C28.1058 195.387 28.0776 195.325 28.0561 195.26C27.9001 194.84 27.7741 194.426 27.6541 194.012C27.4141 193.178 27.1741 192.344 26.9401 191.516L25.6021 186.566C25.1701 184.928 24.7501 183.302 24.3541 181.688L24.0601 180.488C23.9979 180.277 23.9576 180.06 23.9401 179.84C23.9562 179.613 24.0152 179.391 24.1141 179.186C24.515 178.452 25.0271 177.784 25.6321 177.206C26.7863 176.071 28.015 175.015 29.3101 174.044C30.5821 173.078 31.8721 172.172 33.1921 171.332C33.8521 170.912 34.5121 170.51 35.1961 170.132C35.5372 169.942 35.8922 169.777 36.2581 169.64C36.6533 169.56 37.0549 169.516 37.4581 169.508C39.0001 169.4 40.5001 169.4 42.0001 169.4L50.5741 169.472L65.9701 169.538L88.2721 169.664L94.3321 169.712H95.9101L96.4201 169.748Z" fill="#263238"/>
<path d="M109.386 195.374C109.389 195.323 109.399 195.272 109.416 195.224C109.452 195.11 109.488 194.966 109.542 194.798C109.65 194.42 109.824 193.868 109.992 193.148C110.376 191.714 110.826 189.614 111.36 187.01C111.894 184.406 112.506 181.298 113.19 177.854C113.874 174.41 114.672 170.654 115.71 166.7C116.202 164.781 116.815 162.895 117.546 161.054C117.744 160.61 117.972 160.19 118.182 159.764C118.392 159.338 118.656 158.954 118.902 158.564C119.384 157.798 119.907 157.059 120.468 156.35C121.494 155.016 122.745 153.871 124.164 152.966C125.416 152.194 126.82 151.701 128.28 151.52C130.392 151.248 132.537 151.596 134.454 152.522C134.969 152.777 135.461 153.076 135.924 153.416L136.272 153.692C136.344 153.758 136.386 153.794 136.38 153.8C135.755 153.345 135.092 152.944 134.4 152.6C132.495 151.734 130.384 151.424 128.31 151.706C126.885 151.901 125.517 152.396 124.296 153.158C122.913 154.057 121.695 155.187 120.696 156.5C120.143 157.204 119.628 157.937 119.154 158.696C118.914 159.086 118.656 159.476 118.446 159.896C118.236 160.316 118.02 160.724 117.846 161.156C117.131 162.985 116.53 164.857 116.046 166.76C115.014 170.678 114.246 174.458 113.508 177.896C112.77 181.334 112.176 184.436 111.612 187.034C111.048 189.632 110.562 191.732 110.148 193.16C109.956 193.88 109.764 194.426 109.638 194.798C109.572 194.966 109.524 195.104 109.482 195.218C109.457 195.274 109.425 195.326 109.386 195.374Z" fill="#263238"/>
<path d="M110.796 118.172C110.88 118.172 108.144 129.764 104.682 144.02C101.22 158.276 98.346 169.82 98.262 169.79C98.178 169.76 100.914 158.198 104.376 143.942C107.838 129.686 110.712 118.154 110.796 118.172Z" fill="#263238"/>
<path d="M24.8881 121.856C24.9605 122.01 25.0188 122.171 25.0621 122.336C25.1641 122.678 25.3081 123.134 25.4881 123.716C25.8601 124.952 26.3761 126.686 27.0121 128.816C28.2781 133.13 30.0121 139.1 31.8121 145.712C33.6121 152.324 35.2261 158.312 36.3541 162.68C36.9001 164.84 37.3441 166.592 37.6621 167.84C37.8001 168.44 37.9141 168.902 37.9981 169.25C38.0443 169.413 38.0764 169.58 38.0941 169.748C38.028 169.591 37.9758 169.428 37.9381 169.262C37.8361 168.92 37.7101 168.458 37.5421 167.87C37.2001 166.628 36.7261 164.87 36.1381 162.74C34.9381 158.378 33.3121 152.402 31.5121 145.796L26.8021 128.876L25.3801 123.752C25.2241 123.152 25.0981 122.696 25.0021 122.354C24.9509 122.191 24.9128 122.025 24.8881 121.856Z" fill="#263238"/>
<path d="M48.33 52.19C48.4059 51.3204 48.7886 50.5062 49.4096 49.8929C50.0307 49.2795 50.8496 48.9071 51.72 48.842C50.7 47.168 51.552 44.75 53.286 43.832C54.1776 43.4155 55.1734 43.2752 56.1453 43.4292C57.1172 43.5831 58.0209 44.0243 58.74 44.696C59.1725 43.9796 59.8304 43.4269 60.6107 43.1246C61.3911 42.8223 62.2496 42.7875 63.0519 43.0256C63.8541 43.2637 64.5546 43.7613 65.0436 44.4404C65.5327 45.1195 65.7825 45.9417 65.754 46.778C67.344 46.268 69.144 47.576 69.456 49.22C69.5655 50.0502 69.4383 50.8944 69.0891 51.6555C68.7399 52.4166 68.1828 53.0636 67.482 53.522C68.292 54.122 68.208 55.478 67.548 56.252C66.8153 56.9735 65.8589 57.4242 64.836 57.53L58.512 59.408C56.994 60.254 55.128 60.686 53.508 60.062C51.888 59.438 50.718 57.524 51.33 55.898C50.4715 55.736 49.6985 55.2742 49.149 54.595C48.5994 53.9158 48.3092 53.0634 48.33 52.19V52.19Z" fill="#263238"/>
<path d="M48.384 51.476C48.4488 51.3968 48.5234 51.3263 48.606 51.266C48.8463 51.0861 49.1164 50.95 49.404 50.864C49.8641 50.7288 50.3502 50.7082 50.82 50.804C51.4592 50.9199 52.0358 51.2604 52.446 51.764L52.26 51.824C52.3189 50.9665 52.6705 50.1552 53.256 49.526C53.9288 48.7854 54.8161 48.2736 55.794 48.062C56.8884 47.8597 58.0182 47.9871 59.04 48.428C60.1378 48.8917 61.1208 49.59 61.92 50.474C62.3249 50.9033 62.6283 51.4179 62.808 51.98C62.8927 52.2646 62.9135 52.5643 62.8689 52.8578C62.8243 53.1514 62.7154 53.4314 62.55 53.678C62.3947 53.9371 62.1675 54.1455 61.896 54.278C61.6255 54.4029 61.3195 54.4284 61.032 54.35C60.7625 54.2724 60.5178 54.1259 60.3221 53.925C60.1264 53.724 59.9864 53.4755 59.916 53.204C59.8572 52.95 59.8518 52.6865 59.9004 52.4303C59.9489 52.1741 60.0503 51.9309 60.198 51.716C60.4667 51.3124 60.8487 50.9972 61.296 50.81C62.0827 50.5032 62.9417 50.4323 63.768 50.606C64.9588 50.8244 66.047 51.4222 66.87 52.31C67.0966 52.5463 67.2977 52.8057 67.47 53.084C67.5338 53.1765 67.5843 53.2775 67.62 53.384C67.3674 53.0368 67.0928 52.7062 66.798 52.394C65.9661 51.5681 64.8996 51.0191 63.744 50.822C62.9607 50.6729 62.1512 50.7499 61.41 51.044C61.0136 51.2132 60.6771 51.4975 60.444 51.86C60.3187 52.0441 60.2328 52.2521 60.1915 52.471C60.1502 52.6898 60.1544 52.9149 60.204 53.132C60.2647 53.3516 60.3803 53.5522 60.5398 53.7149C60.6994 53.8775 60.8976 53.997 61.116 54.062C61.3462 54.1128 61.5866 54.089 61.8023 53.9941C62.0181 53.8992 62.198 53.738 62.316 53.534C62.4561 53.3236 62.5476 53.0847 62.5839 52.8347C62.6202 52.5846 62.6005 52.3295 62.526 52.088C62.3571 51.5731 62.0764 51.1018 61.704 50.708C60.138 48.974 57.846 47.96 55.866 48.368C54.9459 48.5596 54.1076 49.0311 53.466 49.718C52.9086 50.3012 52.5658 51.0565 52.494 51.86V52.136L52.326 51.92C51.9542 51.4425 51.4246 51.1129 50.832 50.99C50.3883 50.8835 49.9257 50.8835 49.482 50.99C49.0914 51.0894 48.7202 51.2537 48.384 51.476V51.476Z" fill="#455A64"/>
<path d="M54.258 58.004C54.2459 58.0597 54.2235 58.1126 54.192 58.16C54.11 58.3061 53.9998 58.4346 53.868 58.538C53.6545 58.7071 53.4034 58.8223 53.136 58.874C52.7653 58.9447 52.3817 58.8786 52.056 58.688L51.456 58.334L52.104 58.532L52.788 58.736L53.64 58.994L52.752 58.928C52.4259 58.9011 52.1143 58.7816 51.8539 58.5835C51.5935 58.3853 51.3952 58.1169 51.2823 57.8098C51.1695 57.5027 51.1467 57.1697 51.2168 56.8501C51.2869 56.5306 51.4469 56.2377 51.678 56.006L51.882 56.174C51.4792 56.7357 50.9273 57.1734 50.2886 57.4375C49.6499 57.7017 48.9501 57.7818 48.2682 57.6688C47.5864 57.5558 46.9498 57.2542 46.4305 56.7981C45.9112 56.3419 45.53 55.7496 45.33 55.088C45.159 54.6123 45.0935 54.1051 45.1381 53.6016C45.1826 53.0981 45.3361 52.6103 45.588 52.172C45.8261 51.7402 46.2254 51.4202 46.6987 51.2819C47.1721 51.1436 47.6809 51.1983 48.114 51.434L47.94 51.668C47.4197 51.2081 47.1026 50.561 47.058 49.868C46.9981 49.2501 47.1391 48.6294 47.46 48.098C47.7463 47.6237 48.1934 47.2681 48.72 47.096C49.1637 46.9526 49.6369 46.9257 50.094 47.018C50.7372 47.1358 51.3177 47.4781 51.732 47.984C51.8787 48.1596 51.9871 48.364 52.05 48.584C52.05 48.584 51.942 48.368 51.66 48.044C51.2391 47.5853 50.6737 47.2846 50.058 47.192C49.6341 47.1202 49.199 47.1553 48.792 47.294C48.3186 47.4621 47.9193 47.7913 47.664 48.224C47.3843 48.7153 47.2647 49.2816 47.322 49.844C47.3746 50.4597 47.6625 51.0313 48.126 51.44L47.952 51.668C47.5843 51.4809 47.1581 51.4452 46.7644 51.5686C46.3708 51.692 46.0411 51.9646 45.846 52.328C45.6221 52.7288 45.487 53.173 45.4497 53.6305C45.4124 54.0881 45.4739 54.5483 45.63 54.98C45.8288 55.621 46.2108 56.1898 46.7289 56.6163C47.2471 57.0427 47.8788 57.3082 48.546 57.38C49.1408 57.4372 49.7403 57.3403 50.2867 57.0986C50.8332 56.8569 51.3082 56.4785 51.666 56L51.864 56.168C51.6521 56.3836 51.5097 56.6577 51.4551 56.9551C51.4006 57.2524 51.4364 57.5592 51.558 57.836C51.6684 58.0705 51.8363 58.2732 52.0461 58.4253C52.2559 58.5774 52.5008 58.674 52.758 58.706L52.716 58.898L52.038 58.67L52.116 58.514C52.4003 58.6969 52.7425 58.7674 53.076 58.712C53.3278 58.6777 53.5681 58.5852 53.778 58.442C53.9561 58.3172 54.1175 58.17 54.258 58.004V58.004Z" fill="#263238"/>
<path d="M72.198 54.284C72.3928 54.0339 72.5712 53.7713 72.732 53.498C73.1375 52.7438 73.2689 51.8723 73.104 51.032C72.9268 50.2433 72.4798 49.5412 71.84 49.0471C71.2002 48.553 70.4079 48.298 69.6 48.326C69.4284 48.3177 69.2571 48.3484 69.0991 48.416C68.9411 48.4836 68.8005 48.5861 68.688 48.716C68.6346 48.7739 68.5958 48.8437 68.575 48.9197C68.5542 48.9956 68.5519 49.0755 68.5684 49.1525C68.5849 49.2295 68.6196 49.3015 68.6696 49.3623C68.7197 49.4231 68.7836 49.471 68.856 49.502C69.2174 49.6138 69.6079 49.5838 69.948 49.418C70.3119 49.2782 70.6443 49.0672 70.9255 48.7972C71.2068 48.5273 71.4314 48.2039 71.586 47.846C71.7175 47.5105 71.7718 47.1496 71.7448 46.7902C71.7178 46.4308 71.6102 46.0821 71.43 45.77C71.1182 45.2274 70.6677 44.7776 70.1247 44.4665C69.5817 44.1555 68.9657 43.9945 68.34 44C67.4816 44.0064 66.6514 44.3072 65.988 44.852C65.52 45.242 65.34 45.542 65.316 45.518C65.292 45.494 65.316 45.44 65.436 45.302C65.5734 45.1049 65.7323 44.9238 65.91 44.762C66.574 44.1505 67.4375 43.8008 68.34 43.778C68.9637 43.764 69.5815 43.902 70.14 44.18C70.7913 44.493 71.3314 44.9975 71.688 45.626C71.8947 45.9752 72.0189 46.367 72.0511 46.7715C72.0834 47.176 72.0228 47.5825 71.874 47.96C71.7073 48.3567 71.4618 48.7155 71.1524 49.0146C70.843 49.3137 70.4761 49.5469 70.074 49.7C69.6571 49.8977 69.1803 49.9277 68.742 49.784C68.6246 49.7352 68.521 49.6582 68.4404 49.5598C68.3598 49.4614 68.3047 49.3447 68.28 49.22C68.2609 49.1005 68.2659 48.9785 68.2948 48.861C68.3236 48.7435 68.3757 48.633 68.448 48.536C68.5873 48.3686 68.7629 48.2352 68.9614 48.1458C69.16 48.0564 69.3763 48.0133 69.594 48.02C70.4665 47.9941 71.3201 48.2773 72.0041 48.8196C72.688 49.362 73.1584 50.1285 73.332 50.984C73.4927 51.8706 73.3196 52.7854 72.846 53.552C72.7221 53.758 72.5752 53.9493 72.408 54.122C72.3451 54.1846 72.2745 54.239 72.198 54.284V54.284Z" fill="#263238"/>
<path d="M53.1901 59.342C53.9041 57.98 55.8661 57.806 57.2821 58.412C57.2173 57.882 57.3062 57.3446 57.5384 56.8638C57.7705 56.3829 58.1361 55.979 58.5914 55.7001C59.0467 55.4212 59.5726 55.2792 60.1064 55.2909C60.6402 55.3025 61.1594 55.4675 61.6021 55.766C61.9381 55.994 62.2741 56.312 62.6821 56.282C63.0901 56.252 63.4021 55.862 63.7081 55.568C63.9854 55.2925 64.3169 55.0776 64.6817 54.937C65.0465 54.7964 65.4365 54.7332 65.827 54.7514C66.2176 54.7696 66.6 54.8688 66.9501 55.0427C67.3003 55.2166 67.6104 55.4614 67.8609 55.7616C68.1114 56.0617 68.2967 56.4107 68.4051 56.7863C68.5135 57.1619 68.5427 57.5559 68.4907 57.9434C68.4387 58.3308 68.3067 58.7033 68.1031 59.037C67.8995 59.3707 67.6288 59.6585 67.3081 59.882L67.1161 59.132C64.7282 61.3889 61.703 62.8554 58.4521 63.332C57.1014 63.6221 55.6923 63.4444 54.4561 62.828C53.2861 62.144 52.5541 60.554 53.1901 59.342Z" fill="#9A8CC6"/>
<path d="M49.716 71.378C49.1421 70.4966 48.8558 69.4587 48.8967 68.4077C48.9375 67.3567 49.3034 66.3442 49.944 65.51C50.4602 64.8792 51.1266 64.3882 51.882 64.082C51.9611 62.7865 52.4484 61.5494 53.274 60.548C54.534 59.138 56.952 58.676 58.332 59.948C58.6123 59.4006 58.9997 58.915 59.4711 58.52C59.9425 58.125 60.4884 57.8287 61.0765 57.6485C61.6645 57.4684 62.2827 57.4081 62.8945 57.4712C63.5063 57.5343 64.0991 57.7196 64.638 58.016C66.438 55.88 70.296 56.018 71.964 58.274C72.5127 57.9008 73.1586 57.6962 73.8221 57.6854C74.4856 57.6746 75.1378 57.8581 75.6984 58.2133C76.2589 58.5685 76.7033 59.0799 76.9769 59.6845C77.2504 60.2891 77.3412 60.9605 77.238 61.616C77.883 61.5094 78.5447 61.575 79.1562 61.8061C79.7678 62.0372 80.3075 62.4256 80.7208 62.9321C81.1342 63.4385 81.4065 64.0451 81.5103 64.6906C81.6141 65.336 81.5457 65.9974 81.312 66.608C81.8535 66.6435 82.3722 66.8388 82.8026 67.1693C83.233 67.4997 83.5557 67.9504 83.7298 68.4644C83.9039 68.9783 83.9216 69.5324 83.7806 70.0563C83.6397 70.5803 83.3464 71.0507 82.938 71.408C83.2686 71.8253 83.5102 72.3059 83.6481 72.8201C83.7859 73.3343 83.817 73.8713 83.7394 74.398C83.6618 74.9247 83.4773 75.4299 83.197 75.8826C82.9168 76.3352 82.5469 76.7257 82.11 77.03C82.2706 77.8103 82.1386 78.6224 81.7392 79.3117C81.3398 80.0009 80.7008 80.5193 79.944 80.768L57.258 87.512C53.448 87.242 52.416 84.764 52.26 82.46C51.7843 82.2924 51.3506 82.0238 50.9886 81.6727C50.6267 81.3215 50.3451 80.8961 50.1632 80.4257C49.9813 79.9553 49.9035 79.4512 49.935 78.9478C49.9666 78.4445 50.1068 77.954 50.346 77.51C49.8366 77.1931 49.4071 76.7632 49.0907 76.2536C48.7743 75.7439 48.5795 75.1682 48.5215 74.5711C48.4635 73.9741 48.5437 73.3717 48.7561 72.8106C48.9685 72.2496 49.3072 71.745 49.746 71.336L49.716 71.378Z" fill="#263238"/>
<path d="M58.572 66.266L72.486 63.2C76.926 62.864 79.686 68.396 79.86 72.842C80.028 77.786 80.034 83.822 79.344 87.488C77.952 94.832 72.252 95.6 72.252 95.6C72.252 95.6 72.252 95.708 72.126 97.904L72.024 101.504C72.0071 102.948 71.4848 104.341 70.548 105.44C68.358 107.912 64.668 108.008 60.456 106.112C58.014 105.014 58.164 103.628 57.864 100.22L55.884 68C56.1817 67.5353 56.5758 67.14 57.0395 66.8408C57.5033 66.5416 58.0259 66.3456 58.572 66.266Z" fill="#C17560"/>
<path d="M76.9561 79.49C76.9513 79.7383 76.8494 79.9748 76.6721 80.1487C76.4948 80.3226 76.2564 80.42 76.0081 80.42C75.8872 80.4273 75.7661 80.41 75.6521 80.3691C75.5382 80.3283 75.4337 80.2646 75.345 80.1822C75.2564 80.0997 75.1854 80.0001 75.1364 79.8893C75.0874 79.7786 75.0615 79.6591 75.0601 79.538C75.0647 79.2907 75.1659 79.0551 75.3419 78.8814C75.5178 78.7076 75.7548 78.6095 76.0021 78.608C76.1228 78.6024 76.2435 78.6208 76.3571 78.6622C76.4707 78.7037 76.5749 78.7673 76.6636 78.8494C76.7524 78.9314 76.824 79.0303 76.8742 79.1403C76.9244 79.2503 76.9522 79.3692 76.9561 79.49V79.49Z" fill="#263238"/>
<path d="M78.126 76.61C78.006 76.73 77.298 76.178 76.278 76.154C75.258 76.13 74.478 76.616 74.388 76.484C74.298 76.352 74.46 76.208 74.796 75.98C75.2467 75.687 75.7768 75.5403 76.314 75.56C76.8452 75.5733 77.3582 75.7563 77.778 76.082C78.084 76.334 78.186 76.556 78.126 76.61Z" fill="#263238"/>
<path d="M68.082 79.202C68.0773 79.4493 67.9762 79.6849 67.8002 79.8586C67.6243 80.0324 67.3873 80.1305 67.14 80.132C67.0193 80.1376 66.8986 80.1192 66.785 80.0778C66.6714 80.0363 66.5672 79.9727 66.4785 79.8906C66.3897 79.8086 66.3181 79.7097 66.2679 79.5997C66.2177 79.4897 66.1899 79.3708 66.186 79.25C66.1907 79.0022 66.2916 78.7659 66.4674 78.5912C66.6433 78.4165 66.8802 78.3171 67.128 78.314C67.2495 78.3075 67.371 78.3256 67.4853 78.3671C67.5997 78.4086 67.7045 78.4727 67.7935 78.5556C67.8825 78.6384 67.9539 78.7384 68.0035 78.8494C68.0531 78.9605 68.0798 79.0804 68.082 79.202Z" fill="#263238"/>
<path d="M68.466 76.61C68.346 76.73 67.644 76.178 66.624 76.154C65.604 76.13 64.824 76.616 64.728 76.484C64.632 76.352 64.8 76.208 65.136 75.98C65.587 75.6877 66.1169 75.5411 66.654 75.56C67.1852 75.5733 67.6982 75.7562 68.118 76.082C68.4 76.334 68.526 76.556 68.466 76.61Z" fill="#263238"/>
<path d="M71.3521 83.456C71.8952 83.3021 72.4557 83.2174 73.0201 83.204C73.2841 83.204 73.5301 83.144 73.5781 82.964C73.6089 82.6948 73.5566 82.4226 73.4281 82.184C73.2001 81.548 72.9661 80.876 72.7141 80.18C71.7241 77.318 71.0161 74.972 71.1361 74.936C71.2561 74.9 72.1441 77.18 73.1341 80.036C73.3681 80.744 73.5961 81.416 73.8121 82.058C73.9672 82.3768 74.0055 82.7399 73.9201 83.084C73.8788 83.1754 73.8175 83.2564 73.7406 83.3208C73.6637 83.3852 73.5733 83.4314 73.4761 83.456C73.3302 83.4879 73.1814 83.504 73.0321 83.504C72.4723 83.5597 71.9077 83.5435 71.3521 83.456V83.456Z" fill="#263238"/>
<path d="M72.282 95.6C68.7951 95.5543 65.3899 94.5383 62.448 92.666C62.448 92.666 64.746 97.916 72.174 97.466L72.282 95.6Z" fill="#6F4439"/>
<path d="M67.8961 85.49C68.0354 85.2896 68.2225 85.1271 68.4404 85.0171C68.6583 84.9072 68.9001 84.8532 69.1441 84.86C69.4881 84.8428 69.8305 84.919 70.1347 85.0806C70.439 85.2423 70.6937 85.4832 70.8721 85.778C71.0017 86.048 71.0211 86.3579 70.9261 86.642C70.8601 86.792 70.9261 86.72 70.7941 86.816C70.3987 87.1972 69.917 87.4771 69.3901 87.632C69.1069 87.6935 68.8119 87.6693 68.5426 87.5625C68.2733 87.4556 68.042 87.2709 67.8781 87.032C67.7399 86.7979 67.6686 86.5303 67.6717 86.2585C67.6749 85.9866 67.7525 85.7209 67.8961 85.49Z" fill="#6F4439"/>
<path d="M68.142 84.104C68.31 84.104 68.286 85.208 69.216 86.018C70.146 86.828 71.328 86.732 71.334 86.888C71.34 87.044 71.064 87.098 70.566 87.098C69.9065 87.0996 69.2681 86.8655 68.766 86.438C68.2922 86.0319 67.9952 85.4573 67.938 84.836C67.938 84.368 68.064 84.098 68.142 84.104Z" fill="#263238"/>
<path d="M68.6161 72.158C68.5261 72.44 67.5001 72.338 66.3061 72.518C65.1121 72.698 64.1521 73.046 63.9841 72.806C63.9121 72.686 64.0741 72.422 64.4581 72.14C64.967 71.7915 65.5507 71.5675 66.1621 71.486C66.7666 71.4014 67.3824 71.4568 67.9621 71.648C68.4301 71.816 68.6581 72.026 68.6161 72.158Z" fill="#263238"/>
<path d="M77.922 72.968C77.712 73.19 76.938 72.908 75.996 72.842C75.054 72.776 74.244 72.902 74.07 72.65C73.998 72.53 74.136 72.302 74.496 72.104C74.9879 71.8587 75.5389 71.7568 76.086 71.81C76.6343 71.8454 77.161 72.037 77.604 72.362C77.922 72.614 78 72.86 77.922 72.968Z" fill="#263238"/>
<path d="M72.6 62.384C72.6039 62.438 72.6039 62.492 72.6 62.546V62.384Z" fill="#263238"/>
<path d="M57.852 79.466C57.867 79.2352 57.7981 79.0068 57.6581 78.8227C57.5181 78.6386 57.3164 78.5112 57.09 78.464C55.89 78.206 53.778 78.206 53.568 81.212C53.274 85.37 57.51 84.812 57.528 84.686C57.546 84.56 57.756 81.056 57.852 79.466Z" fill="#C17560"/>
<path d="M56.4 83C56.4 83 56.322 83.042 56.196 83.09C56.021 83.161 55.8251 83.161 55.65 83.09C55.394 82.9001 55.1929 82.6456 55.0675 82.3525C54.942 82.0595 54.8967 81.7383 54.936 81.422C54.9484 81.0634 55.0428 80.7124 55.212 80.396C55.2615 80.267 55.3422 80.1524 55.4469 80.0623C55.5517 79.9722 55.6771 79.9096 55.812 79.88C55.8968 79.8641 55.9844 79.8782 56.0599 79.9198C56.1354 79.9614 56.1941 80.0279 56.226 80.108C56.274 80.228 56.226 80.312 56.262 80.318C56.298 80.324 56.358 80.252 56.334 80.078C56.3168 79.9747 56.2662 79.8799 56.19 79.808C56.0826 79.7142 55.9424 79.6668 55.8 79.676C55.6259 79.6988 55.4605 79.766 55.3197 79.871C55.1789 79.9761 55.0675 80.1155 54.996 80.276C54.7909 80.6243 54.6755 81.0181 54.66 81.422C54.66 82.262 55.002 83.078 55.596 83.294C55.7048 83.334 55.8213 83.3488 55.9366 83.3374C56.0519 83.3259 56.1632 83.2885 56.262 83.228C56.352 83.12 56.4 83.03 56.4 83Z" fill="#6F4439"/>
<path d="M81.3241 75.278C80.9356 75.2853 80.5505 75.205 80.1973 75.043C79.8442 74.881 79.5321 74.6415 79.2842 74.3423C79.0363 74.0431 78.859 73.6919 78.7655 73.3148C78.672 72.9377 78.6647 72.5443 78.7441 72.164C78.3242 72.1727 77.908 72.0832 77.5289 71.9025C77.1497 71.7218 76.8181 71.4549 76.5604 71.1232C76.3027 70.7915 76.1262 70.4042 76.0449 69.9921C75.9636 69.5801 75.9797 69.1547 76.0921 68.75C75.6396 68.9716 75.1429 69.0882 74.6391 69.0912C74.1353 69.0942 73.6373 68.9834 73.1823 68.7671C72.7272 68.5508 72.3268 68.2346 72.011 67.8421C71.6951 67.4496 71.472 66.9908 71.3581 66.5C71.3491 66.668 71.2962 66.8307 71.2046 66.9718C71.113 67.1129 70.9859 67.2275 70.8361 67.304C70.5311 67.4537 70.1899 67.514 69.8521 67.478C69.3004 67.4332 68.7705 67.243 68.3163 66.9269C67.862 66.6107 67.4996 66.1798 67.2661 65.678C66.9137 66.2347 66.3772 66.65 65.7501 66.8518C65.1229 67.0535 64.4449 67.0288 63.8341 66.782C63.3901 66.59 62.9641 66.182 63.0361 65.702C63.0743 65.5307 63.1478 65.3692 63.2521 65.228C64.5181 63.314 66.8161 62.228 69.0961 62.06C71.3951 61.9501 73.6918 62.3199 75.8401 63.146C77.146 63.5052 78.3526 64.1578 79.3681 65.054C80.3941 66.074 80.9221 67.454 81.4201 68.852C81.8129 69.8336 82.1123 70.8501 82.3141 71.888C82.5111 72.9349 82.4007 74.0165 81.9961 75.002H81.7081" fill="#263238"/>
<path d="M63.8341 65.6C63.8029 66.4949 63.4662 67.3521 62.88 68.029C62.2938 68.7059 61.4933 69.1615 60.6121 69.32C61.0694 69.4906 61.4456 69.8276 61.6653 70.2635C61.8851 70.6994 61.9322 71.2022 61.7973 71.6714C61.6623 72.1405 61.3553 72.5415 60.9376 72.7941C60.5199 73.0467 60.0222 73.1324 59.5441 73.034C59.8367 73.623 60.0023 74.2669 60.0301 74.924C60.0373 75.252 59.9448 75.5744 59.7649 75.8487C59.5849 76.123 59.3258 76.3362 59.0221 76.46C59.2268 76.6749 59.3768 76.9359 59.4593 77.2211C59.5418 77.5062 59.5544 77.807 59.4961 78.098C59.4192 78.4408 59.2272 78.7468 58.9521 78.9652C58.677 79.1836 58.3353 79.301 57.9841 79.298C57.3841 79.298 56.8741 78.542 56.2681 78.428C55.8121 78.3471 55.3435 78.375 54.9003 78.5095C54.4572 78.644 54.0521 78.8813 53.7181 79.202L52.9561 71.444L53.8921 65.222L57.5281 62.57L64.524 63.8L63.8341 65.6Z" fill="#263238"/>
<path d="M52.2001 65.816C52.4477 65.8048 52.6943 65.7767 52.9381 65.732C53.2475 65.6558 53.5344 65.5073 53.7754 65.2987C54.0163 65.0901 54.2043 64.8273 54.3241 64.532L54.4981 64.07L54.5641 64.562C54.6574 65.1652 54.9771 65.7102 55.4581 66.086C55.7325 66.3009 56.0536 66.4482 56.3955 66.516C56.7374 66.5838 57.0905 66.5701 57.4261 66.476C57.8705 66.3632 58.2714 66.1209 58.5781 65.78L58.7161 65.624L58.8241 65.798C59.2046 66.381 59.7618 66.8268 60.4141 67.07C60.9396 67.2627 61.5064 67.3145 62.0581 67.22C62.557 67.1112 63.0365 66.9271 63.4801 66.674C63.4801 66.674 63.3961 66.8 63.1681 66.956C62.8421 67.1744 62.4777 67.3292 62.0941 67.412C61.5092 67.5469 60.8982 67.5157 60.3301 67.322C59.6067 67.0773 58.9859 66.5979 58.5661 65.96H58.8121C58.4674 66.3512 58.0142 66.6311 57.5101 66.764C57.1266 66.8689 56.7238 66.8812 56.3346 66.7999C55.9455 66.7185 55.5813 66.5458 55.2721 66.296C54.7415 65.8685 54.3991 65.2505 54.3181 64.574L54.5581 64.604C54.4217 64.9328 54.2045 65.2219 53.9265 65.4443C53.6485 65.6667 53.3188 65.8152 52.9681 65.876C52.7122 65.9383 52.4431 65.9173 52.2001 65.816V65.816Z" fill="#455A64"/>
<path d="M63.09 57.674C62.5595 57.9224 62.0445 58.203 61.548 58.514C61.038 58.8724 60.6422 59.3703 60.408 59.948C60.2668 60.2875 60.2224 60.6595 60.2795 61.0227C60.3367 61.386 60.4933 61.7263 60.732 62.006C60.8948 62.1929 61.1008 62.3371 61.332 62.426L61.518 62.492L61.41 62.66C61.2583 62.9433 61.1788 63.2596 61.1788 63.581C61.1788 63.9024 61.2583 64.2187 61.41 64.502C61.6563 64.9731 62.0048 65.3831 62.43 65.702C63.162 66.266 63.672 66.542 63.63 66.59C63.588 66.638 63.486 66.554 63.252 66.434C62.9126 66.2636 62.5892 66.0628 62.286 65.834C61.8046 65.5132 61.4123 65.0756 61.146 64.562C60.9659 64.2359 60.8714 63.8695 60.8714 63.497C60.8714 63.1245 60.9659 62.758 61.146 62.432L61.224 62.666C60.9427 62.56 60.6914 62.387 60.492 62.162C60.2076 61.8389 60.0223 61.4407 59.9585 61.015C59.8946 60.5894 59.9549 60.1543 60.132 59.762C60.3926 59.1387 60.8388 58.6107 61.41 58.25C61.7823 58.0095 62.1862 57.8217 62.61 57.692C62.91 57.68 63.084 57.65 63.09 57.674Z" fill="#455A64"/>
<path d="M85.6681 82.514C85.6681 82.514 85.6261 82.55 85.5241 82.592C85.3748 82.646 85.2198 82.6823 85.0621 82.7C84.4681 82.7472 83.8779 82.5719 83.4061 82.208C83.1328 81.9798 82.9148 81.6926 82.7687 81.3679C82.6225 81.0433 82.552 80.6897 82.5624 80.3338C82.5728 79.9779 82.6638 79.629 82.8287 79.3134C82.9935 78.9979 83.2279 78.7238 83.5141 78.512C83.7529 78.3355 84.0393 78.2351 84.3361 78.224C84.4966 78.2228 84.6552 78.2584 84.7998 78.3281C84.9443 78.3978 85.071 78.4997 85.1701 78.626C85.2631 78.7613 85.3172 78.9195 85.3268 79.0835C85.3363 79.2474 85.3008 79.4108 85.2241 79.556C85.0895 79.8198 84.881 80.0388 84.6241 80.186C84.149 80.4434 83.5955 80.516 83.0701 80.39C82.6357 80.2952 82.2324 80.092 81.8977 79.7993C81.563 79.5065 81.3079 79.1339 81.1561 78.716C80.9569 78.167 80.9031 77.5759 81.0001 77C81.0185 76.789 81.0819 76.5844 81.1861 76.4C81.1861 76.4 81.1501 76.622 81.1201 77C81.0735 77.5538 81.1578 78.1108 81.3661 78.626C81.512 78.9726 81.731 79.2837 82.0081 79.538C82.3291 79.8201 82.7177 80.0144 83.1361 80.102C83.5899 80.203 84.065 80.137 84.4741 79.916C84.8701 79.7 85.1941 79.166 84.9241 78.806C84.8527 78.7162 84.7612 78.6444 84.657 78.5965C84.5528 78.5485 84.4387 78.5258 84.3241 78.53C84.0897 78.5372 83.8633 78.6168 83.6761 78.758C83.2978 79.0303 83.0246 79.4243 82.9021 79.874C82.7876 80.2564 82.7862 80.6638 82.898 81.0471C83.0097 81.4303 83.23 81.7731 83.5321 82.034C83.9567 82.3859 84.4927 82.5752 85.0441 82.568C85.4521 82.574 85.6621 82.484 85.6681 82.514Z" fill="#263238"/>
<path d="M52.932 77.282C52.7732 77.4134 52.5896 77.5113 52.392 77.57C51.8679 77.7637 51.3127 77.8593 50.754 77.852C49.9209 77.8564 49.0945 77.7037 48.318 77.402C48.0751 77.3049 47.8552 77.1582 47.6723 76.9712C47.4894 76.7841 47.3476 76.561 47.256 76.316C47.1518 76.0416 47.1518 75.7384 47.256 75.464C47.3174 75.3261 47.4059 75.202 47.5162 75.0989C47.6264 74.9959 47.7563 74.916 47.898 74.864C48.0751 74.8041 48.2669 74.8041 48.444 74.864L48.336 75.152C47.8872 74.9209 47.5178 74.5609 47.2751 74.1183C47.0324 73.6757 46.9276 73.1706 46.974 72.668C47.0085 72.2286 47.1759 71.81 47.454 71.468C47.7462 71.1213 48.1275 70.8609 48.5568 70.715C48.9861 70.5691 49.4471 70.5431 49.89 70.64C50.0818 70.6736 50.2616 70.7563 50.412 70.88C50.412 70.88 50.22 70.814 49.866 70.76C49.3753 70.688 48.8743 70.7697 48.432 70.994C48.0986 71.1424 47.8112 71.3778 47.6001 71.6755C47.389 71.9732 47.2618 72.3222 47.232 72.686C47.1989 73.1263 47.2948 73.5668 47.5079 73.9536C47.721 74.3403 48.0421 74.6567 48.432 74.864L48.318 75.152C48.2027 75.1164 48.0793 75.1164 47.964 75.152C47.7588 75.2323 47.5931 75.3894 47.502 75.59C47.4267 75.7953 47.4267 76.0207 47.502 76.226C47.5789 76.4328 47.6981 76.6214 47.852 76.7794C48.006 76.9375 48.1913 77.0617 48.396 77.144C49.132 77.4463 49.9167 77.6129 50.712 77.636C51.4674 77.6544 52.2198 77.5345 52.932 77.282Z" fill="#263238"/>
<path d="M81.5281 132.998C81.7141 133.28 88.4101 142.274 88.4101 142.274L96.5161 134.75L91.3261 121.688L88.2001 116.366L81.5281 132.998Z" fill="#C17560"/>
<g opacity="0.3">
<path d="M55.1641 213.74L51.7861 213.674L50.5861 184.304L43.2421 181.184L56.5861 172.97L92.1601 198.122L99.2641 213.74H55.1641Z" fill="black"/>
</g>
<path d="M78.6 203.648L84.876 215.54L94.2 210.35L90.102 197.39L78.6 203.648Z" fill="#C17560"/>
<path d="M83.826 213.926C83.826 213.926 93.426 214.22 93.618 208.034L94.134 209.282L108.45 218.69C110.724 220.31 110.544 222.164 109.944 223.118C109.724 223.469 109.409 223.75 109.034 223.927C108.66 224.105 108.243 224.172 107.832 224.12C103.38 223.556 87.006 221.384 86.184 220.064L85.332 218.912C83.964 217.298 83.532 215.312 83.976 214.592L83.826 213.926Z" fill="#263238"/>
<g opacity="0.6">
<path d="M109.698 223.436L85.332 218.912L85.866 219.632C86.376 220.472 86.946 220.526 87.666 220.76C89.868 221.438 95.376 222.524 107.754 224.162C108.109 224.209 108.47 224.167 108.805 224.04C109.14 223.913 109.439 223.706 109.674 223.436H109.698Z" fill="white"/>
</g>
<g opacity="0.6">
<path d="M87.036 215.816C87.36 215.814 87.6733 215.932 87.9159 216.146C88.1584 216.361 88.313 216.658 88.35 216.98C88.3637 217.304 88.2525 217.621 88.0392 217.866C87.826 218.11 87.527 218.264 87.204 218.294C86.8601 218.294 86.5285 218.167 86.2734 217.936C86.0184 217.705 85.8582 217.388 85.824 217.046C85.8456 216.708 85.9968 216.392 86.246 216.162C86.4953 215.933 86.8234 215.809 87.162 215.816" fill="white"/>
</g>
<path d="M98.316 217.73C98.448 217.73 98.172 216.53 98.832 215.294C99.492 214.058 100.572 213.584 100.518 213.464C100.464 213.344 100.188 213.464 99.744 213.68C99.1779 214.012 98.7178 214.497 98.4171 215.081C98.1165 215.664 97.9878 216.32 98.046 216.974C98.106 217.472 98.262 217.748 98.316 217.73Z" fill="white"/>
<path d="M101.034 218.75C101.172 218.75 101.31 217.802 102 216.896C102.69 215.99 103.56 215.576 103.512 215.45C103.464 215.324 102.402 215.57 101.628 216.614C100.854 217.658 100.914 218.768 101.034 218.75Z" fill="white"/>
<path d="M95.238 216.602C95.358 216.602 95.538 215.342 96.366 214.034C97.194 212.726 98.25 212 98.166 211.898C98.082 211.796 96.876 212.408 96.006 213.824C95.136 215.24 95.136 216.614 95.238 216.602Z" fill="white"/>
<path d="M95.574 212.816C95.574 212.816 95.412 212.57 95.004 212.252C94.4189 211.801 93.7499 211.47 93.036 211.28C92.5242 211.095 91.9657 211.082 91.446 211.244C91.2808 211.315 91.1411 211.434 91.0457 211.586C90.9502 211.739 90.9036 211.917 90.912 212.096C90.9541 212.444 91.1229 212.764 91.386 212.996C91.9364 213.453 92.6294 213.703 93.345 213.703C94.0605 213.703 94.7535 213.453 95.304 212.996C95.837 212.533 96.2199 211.921 96.4037 211.239C96.5876 210.558 96.564 209.836 96.336 209.168C96.2783 208.999 96.1846 208.844 96.0613 208.715C95.938 208.585 95.7881 208.484 95.622 208.418C95.4483 208.37 95.2638 208.377 95.0947 208.44C94.9256 208.502 94.7805 208.616 94.68 208.766C94.4052 209.225 94.2581 209.749 94.254 210.284C94.1943 211.019 94.2675 211.759 94.47 212.468C94.5263 212.733 94.6388 212.982 94.8 213.2C94.5907 212.251 94.5239 211.276 94.602 210.308C94.6251 209.843 94.7632 209.392 95.004 208.994C95.0576 208.912 95.136 208.849 95.2276 208.815C95.3193 208.78 95.4196 208.776 95.514 208.802C95.619 208.854 95.7121 208.927 95.7874 209.017C95.8628 209.107 95.9188 209.212 95.952 209.324C96.1309 209.907 96.1384 210.529 95.9735 211.117C95.8086 211.704 95.4783 212.231 95.022 212.636C94.557 213.021 93.9752 213.238 93.3715 213.249C92.7678 213.261 92.1779 213.068 91.698 212.702C91.514 212.549 91.3889 212.337 91.344 212.102C91.3338 212.003 91.3557 211.904 91.4065 211.818C91.4573 211.733 91.5342 211.666 91.626 211.628C92.0629 211.487 92.533 211.487 92.97 211.628C93.8991 211.873 94.7797 212.275 95.574 212.816V212.816Z" fill="white"/>
<path d="M58.386 219.272C58.434 219.272 58.5 233.93 58.5 233.93C58.5 233.93 68.658 235.52 68.658 235.262C68.658 235.004 71.658 221 71.658 221L58.386 219.272Z" fill="#C17560"/>
<path d="M69.48 231.2C69.48 231.2 62.094 236.768 58.476 231.746L58.338 233.084L51.69 248.876C50.7 251.492 51.882 252.932 52.89 253.388C53.2684 253.558 53.6876 253.616 54.098 253.556C54.5085 253.495 54.893 253.318 55.206 253.046C58.584 250.094 70.968 239.168 70.92 237.614L70.986 236.18C71.22 234.08 70.488 232.184 69.708 231.842L69.48 231.2Z" fill="#263238"/>
<g opacity="0.6">
<path d="M53.298 253.502L71.01 236.168L70.968 237.068C71.01 238.046 70.572 238.412 70.08 239.018C68.634 240.818 64.68 244.784 55.296 253.034C55.0276 253.271 54.7046 253.438 54.3559 253.52C54.0072 253.601 53.6437 253.595 53.298 253.502V253.502Z" fill="white"/>
</g>
<g opacity="0.6">
<path d="M67.872 234.548C67.6017 234.727 67.4069 234.999 67.325 235.312C67.243 235.625 67.2797 235.958 67.428 236.246C67.5966 236.522 67.8647 236.724 68.1772 236.809C68.4897 236.893 68.8228 236.855 69.108 236.702C69.3933 236.512 69.5978 236.222 69.682 235.89C69.7662 235.557 69.7242 235.205 69.564 234.902C69.3578 234.632 69.0551 234.453 68.7196 234.402C68.384 234.35 68.0416 234.431 67.764 234.626" fill="white"/>
</g>
<path d="M59.568 242.426C59.448 242.474 59.022 241.346 57.768 240.686C56.514 240.026 55.368 240.236 55.368 240.086C55.368 239.936 55.626 239.882 56.124 239.834C56.7808 239.796 57.4349 239.945 58.0105 240.263C58.5861 240.582 59.0596 241.057 59.376 241.634C59.604 242.096 59.622 242.408 59.568 242.426Z" fill="white"/>
<path d="M57.876 244.784C57.774 244.868 57.126 244.148 56.076 243.782C55.026 243.416 54.042 243.554 54.018 243.422C53.994 243.29 55.002 242.906 56.226 243.344C57.45 243.782 57.99 244.73 57.876 244.784Z" fill="white"/>
<path d="M61.5 239.774C61.41 239.858 60.546 238.892 59.1 238.268C57.654 237.644 56.4 237.626 56.406 237.506C56.412 237.386 57.756 237.212 59.268 237.902C60.78 238.592 61.59 239.726 61.5 239.774Z" fill="white"/>
<path d="M59.112 236.816C59.1077 236.544 59.1608 236.274 59.268 236.024C59.5036 235.324 59.8747 234.678 60.36 234.122C60.6836 233.685 61.1406 233.365 61.662 233.21C61.839 233.176 62.0222 233.198 62.1864 233.272C62.3507 233.346 62.4882 233.469 62.58 233.624C62.7397 233.935 62.7782 234.294 62.688 234.632C62.4801 235.316 62.0406 235.906 61.445 236.301C60.8495 236.696 60.1349 236.872 59.424 236.798C58.7229 236.706 58.0645 236.409 57.5309 235.945C56.9974 235.481 56.6124 234.87 56.424 234.188C56.3789 234.016 56.3711 233.837 56.4011 233.662C56.4311 233.487 56.4982 233.321 56.598 233.174C56.7149 233.036 56.8724 232.939 57.0481 232.895C57.2237 232.852 57.4085 232.866 57.576 232.934C58.058 233.164 58.4716 233.515 58.776 233.954C59.2358 234.532 59.5875 235.189 59.814 235.892C59.9223 236.139 59.9736 236.408 59.964 236.678C59.613 235.772 59.1276 234.925 58.524 234.164C58.2434 233.794 57.8769 233.497 57.456 233.3C57.3654 233.26 57.2643 233.251 57.1679 233.274C57.0716 233.296 56.9853 233.35 56.922 233.426C56.8638 233.527 56.8269 233.638 56.8134 233.754C56.8 233.869 56.8104 233.987 56.844 234.098C57.0206 234.682 57.3618 235.204 57.8268 235.6C58.2917 235.995 58.8608 236.249 59.466 236.33C60.0677 236.391 60.6723 236.246 61.1811 235.919C61.69 235.592 62.0731 235.102 62.268 234.53C62.3327 234.295 62.3158 234.046 62.22 233.822C62.1713 233.735 62.0964 233.665 62.0059 233.623C61.9154 233.581 61.8139 233.569 61.716 233.588C61.2754 233.717 60.8855 233.979 60.6 234.338C59.9625 235.07 59.4589 235.909 59.112 236.816V236.816Z" fill="white"/>
<path d="M45.09 103.304L57.756 98.432C57.756 98.432 60.948 103.946 66.576 103.466C72.33 102.974 72.144 98.774 72.144 98.774L88.062 103.292C88.062 103.292 89.112 124.814 88.062 128.174C87.012 131.534 84.03 135.914 84.03 135.914C84.03 135.914 87.18 143.228 87.258 145.244C87.336 147.26 86.454 146.756 86.454 146.756L48.054 147.218L45.09 103.304Z" fill="#9A8CC6"/>
<g opacity="0.3">
<path d="M78.87 125.36C78.378 124.916 77.604 125.21 77.016 125.528C73.71 127.328 70.416 129.128 67.254 131.18C63.288 133.79 59.634 136.832 55.752 139.58C53.464 141.18 51.106 142.682 48.678 144.086L47.856 145.52C48.726 146.942 50.538 147.584 52.2 147.458C53.8608 147.24 55.4441 146.622 56.814 145.658C63.336 141.53 67.926 134.858 74.442 130.724C76.056 129.704 77.85 128.774 78.828 127.124C79.158 126.572 79.338 125.786 78.87 125.36Z" fill="black"/>
</g>
<path d="M80.352 135.554C79.8269 135.622 79.2974 135.65 78.768 135.638C77.796 135.638 76.446 135.71 74.964 135.818C73.482 135.926 72.138 136.088 71.172 136.208C70.6516 136.306 70.1235 136.356 69.594 136.358C70.0924 136.176 70.6097 136.052 71.136 135.986C73.655 135.545 76.2114 135.354 78.768 135.416C79.2996 135.4 79.8312 135.447 80.352 135.554V135.554Z" fill="#263238"/>
<path d="M39.324 129.374C39.324 129.374 42.87 139.382 44.442 141.932C46.014 144.482 46.686 147.77 51.72 146.432C56.754 145.094 59.31 141.8 64.8 137.294C70.29 132.788 73.854 129.374 73.854 129.374L69.978 124.682L53.922 132.002L50.094 123.602L39.324 129.374Z" fill="#C17560"/>
<path d="M87.8821 114.35L76.8481 120.2L67.8 125.918C67.8 125.918 72.2821 129.89 73.5481 129.794C74.8141 129.698 76.5481 127.946 76.5481 127.946C76.6175 128.109 76.7192 128.256 76.8471 128.379C76.9749 128.502 77.1263 128.597 77.2921 128.66C77.8441 128.852 78.4921 128.204 78.4921 128.204C78.8758 128.353 79.2809 128.44 79.6921 128.462C80.2441 128.462 80.8921 126.35 81.2101 124.958C81.3254 124.618 81.3653 124.256 81.327 123.899C81.2886 123.541 81.173 123.196 80.988 122.888L81.42 122.642L82.02 123.704L81.0781 127.07C80.5801 128.918 82.368 128.666 82.368 128.666C82.368 128.666 84.3301 125.252 84.5281 123.314C84.7261 121.376 82.7941 120.134 82.7941 120.134C82.7941 120.134 86.8741 116.624 87.8761 115.934C88.8781 115.244 87.8821 114.35 87.8821 114.35Z" fill="#C17560"/>
<path d="M52.602 139.352C52.4105 139.009 52.2882 138.632 52.242 138.242C51.9063 136.361 52.3198 134.423 53.394 132.842C53.5912 132.505 53.8569 132.212 54.174 131.984C53.4468 133.053 52.9127 134.241 52.596 135.494C52.3764 136.771 52.3784 138.076 52.602 139.352V139.352Z" fill="#6F4439"/>
<path d="M45.744 103.052C45.744 103.052 38.646 105.146 37.278 112.652C36.462 117.086 38.436 131.6 38.436 131.6L52.146 126.5L45.744 103.052Z" fill="#9A8CC6"/>
<path d="M48.048 113C48.2749 113.659 48.4553 114.332 48.588 115.016C48.912 116.354 49.32 118.046 49.788 119.918C50.256 121.79 50.7 123.554 51.048 124.796C51.2641 125.456 51.4444 126.127 51.588 126.806C51.4855 126.65 51.4048 126.48 51.348 126.302C51.21 125.966 51.036 125.468 50.832 124.856C50.43 123.626 49.956 121.904 49.488 119.99C49.02 118.076 48.648 116.33 48.396 115.064C48.224 114.387 48.1077 113.696 48.048 113V113Z" fill="#263238"/>
<path d="M48.462 147.2C48.462 147.2 39.402 157.838 39.6 166.4C39.7411 171.577 41.1283 176.645 43.644 181.172L55.644 181.88C55.644 181.88 56.706 176.15 61.002 176.15C61.932 176.15 77.592 206.15 77.592 206.15L92.934 199.136C92.934 199.136 82.872 172.64 80.4 166.4C77.928 160.16 75.6 157.166 72.318 156.278L68.646 146.978L48.462 147.2Z" fill="#263238"/>
<path d="M51 157.484C51 157.538 50.436 157.382 49.524 157.31C48.3437 157.216 47.1565 157.359 46.032 157.73C44.9067 158.091 43.8799 158.707 43.032 159.53C42.39 160.172 42.09 160.664 42.042 160.628C41.994 160.592 42.084 160.49 42.216 160.268C42.4022 159.948 42.6214 159.648 42.87 159.374C43.7001 158.467 44.7499 157.789 45.918 157.406C47.0772 157.024 48.308 156.909 49.518 157.07C50.0345 157.109 50.5381 157.25 51 157.484V157.484Z" fill="#455A64"/>
<path d="M65.688 155.252C65.5301 153.886 65.4779 152.51 65.532 151.136C65.4779 149.762 65.5301 148.386 65.688 147.02C65.8425 148.386 65.8946 149.762 65.844 151.136C65.8946 152.51 65.8425 153.886 65.688 155.252Z" fill="#455A64"/>
<path d="M55.1041 146.99C55.081 147.158 55.0281 147.321 54.9481 147.47C54.7634 147.89 54.5405 148.291 54.2821 148.67C53.4349 149.947 52.2792 150.989 50.922 151.7C49.5648 152.411 48.05 152.768 46.5181 152.738C46.0589 152.733 45.601 152.687 45.1501 152.6C44.9808 152.581 44.8163 152.532 44.6641 152.456C44.6641 152.402 45.3781 152.546 46.5181 152.522C48.0038 152.491 49.4622 152.116 50.7782 151.426C52.0943 150.735 53.2321 149.749 54.1021 148.544C54.7801 147.626 55.0561 146.966 55.1041 146.99Z" fill="#455A64"/>
<path d="M86.778 146.756C89.968 150.203 92.1132 154.485 92.964 159.104C94.206 166.538 94.284 176.234 92.166 179.822L86.106 181.184L80.772 186.584L73.2 227.72L56.052 225.362C56.052 225.362 54.444 189.626 54.996 186.224C55.548 182.822 55.656 181.892 55.656 181.892C55.656 181.892 55.272 176.288 59.322 172.238C62.4211 169.27 65.7079 166.504 69.162 163.958L68.634 146.99L86.778 146.756Z" fill="#263238"/>
<path d="M90.528 152.6C90.3507 152.702 90.1612 152.78 89.964 152.834C89.4382 153.003 88.8979 153.124 88.35 153.194C86.5197 153.456 84.653 153.155 82.998 152.33C82.5341 152.081 82.0994 151.781 81.702 151.436C81.318 151.112 80.958 150.788 80.622 150.47C80.0371 149.901 79.4842 149.3 78.966 148.67C78.516 148.136 78.174 147.686 77.94 147.38C77.8051 147.228 77.692 147.059 77.604 146.876C78.1426 147.395 78.6515 147.944 79.128 148.52C79.596 149.036 80.154 149.636 80.82 150.26C81.5201 150.952 82.3019 151.557 83.148 152.06C84.7516 152.852 86.5473 153.173 88.326 152.984C89.694 152.846 90.51 152.534 90.528 152.6Z" fill="#455A64"/>
<path d="M55.674 181.892C55.674 181.892 55.674 181.694 55.764 181.292C55.8002 181.054 55.8564 180.819 55.932 180.59C56.0188 180.266 56.1353 179.951 56.28 179.648C56.6605 178.783 57.2452 178.023 57.984 177.434C59.0002 176.632 60.2241 176.137 61.512 176.006H61.56V176.054C65.112 182.654 70.83 193.274 77.76 206.054L77.568 205.994L92.904 198.968L92.826 199.166C92.04 197.168 91.212 195.05 90.366 192.902L82.092 171.8C80.808 168.512 79.572 165.362 78.408 162.374C77.8885 160.92 77.0262 159.613 75.894 158.564C74.8371 157.58 73.5529 156.873 72.156 156.506V156.506C68.8683 155.555 65.4469 155.15 62.028 155.306C59.4321 155.415 56.8591 155.84 54.366 156.572C52.7849 157.041 51.2407 157.627 49.746 158.324C49.236 158.564 48.852 158.774 48.594 158.924L48.192 159.116C48.192 159.116 48.318 159.032 48.576 158.894C48.834 158.756 49.176 158.54 49.716 158.294C51.2026 157.57 52.7457 156.968 54.33 156.494C60.1538 154.719 66.366 154.66 72.222 156.326V156.326C73.6666 156.697 74.9964 157.42 76.092 158.432C77.2555 159.506 78.1443 160.843 78.684 162.332C79.884 165.332 81.084 168.47 82.392 171.752C84.972 178.352 87.762 185.444 90.678 192.866C91.518 195.014 92.352 197.132 93.132 199.13L93.186 199.268L93.054 199.328L77.706 206.336L77.58 206.39L77.52 206.27C70.674 193.442 64.992 182.786 61.47 176.18L61.542 176.222C60.2839 176.342 59.0857 176.817 58.086 177.59C57.352 178.161 56.7655 178.9 56.376 179.744C56.2272 180.04 56.1067 180.349 56.016 180.668C55.9322 180.894 55.8699 181.127 55.83 181.364C55.722 181.7 55.674 181.892 55.674 181.892Z" fill="#455A64"/>
<path d="M90.528 159.692C90.492 159.746 89.832 159.278 88.65 158.774C87.9572 158.483 87.2406 158.252 86.508 158.084C85.6083 157.892 84.692 157.787 83.772 157.772C82.853 157.775 81.9365 157.87 81.036 158.054C80.301 158.207 79.5819 158.428 78.888 158.714C77.688 159.206 77.034 159.662 76.998 159.608C77.1337 159.475 77.2848 159.358 77.448 159.26C77.6291 159.133 77.8174 159.017 78.012 158.912C78.24 158.792 78.498 158.636 78.798 158.51C79.4972 158.191 80.227 157.944 80.976 157.772C82.8189 157.344 84.7368 157.356 86.574 157.808C87.3215 157.996 88.0473 158.262 88.74 158.6C89.0078 158.723 89.2682 158.861 89.52 159.014C89.7162 159.119 89.9047 159.237 90.084 159.368C90.2429 159.46 90.3917 159.569 90.528 159.692V159.692Z" fill="#455A64"/>
<g opacity="0.3">
<path d="M61.512 176.102C61.512 176.102 66.054 195.5 71.004 200.93C75.954 206.36 77.28 207.5 77.28 207.5L77.622 206.162L61.512 176.102Z" fill="black"/>
</g>
<path d="M88.29 142.112C88.29 142.112 88.788 139.112 90.264 137.378C91.5559 136.014 92.9609 134.761 94.464 133.634H95.22L97.212 129.164L102.81 128.894C102.81 128.894 101.61 139.802 98.922 143.12C96.234 146.438 93.486 146.264 92.322 145.928C91.158 145.592 88.29 142.112 88.29 142.112Z" fill="#C17560"/>
<path d="M78.642 99.986L74.22 121.784C74.1642 122.065 74.1714 122.356 74.2411 122.634C74.3107 122.912 74.4412 123.172 74.623 123.394C74.8048 123.616 75.0335 123.795 75.2927 123.918C75.5518 124.041 75.835 124.105 76.122 124.106H106.518C106.958 124.104 107.385 123.953 107.729 123.678C108.072 123.402 108.311 123.018 108.408 122.588L113.292 100.79C113.355 100.507 113.353 100.213 113.288 99.9308C113.222 99.6483 113.094 99.3842 112.912 99.1579C112.731 98.9316 112.501 98.7489 112.24 98.6233C111.978 98.4977 111.692 98.4323 111.402 98.432H80.538C80.0906 98.4305 79.6568 98.5848 79.3108 98.8684C78.9648 99.152 78.7284 99.5471 78.642 99.986V99.986Z" fill="#263238"/>
<path d="M78.642 99.986C78.6489 99.8833 78.6712 99.7821 78.708 99.686C78.8081 99.3992 78.9747 99.1401 79.194 98.93C79.5571 98.585 80.0372 98.39 80.538 98.384H82.518L95.166 98.33H103.896H111.306C111.768 98.3112 112.223 98.4449 112.602 98.7106C112.98 98.9762 113.261 99.3591 113.4 99.8C113.507 100.259 113.486 100.738 113.34 101.186C113.244 101.618 113.148 102.056 113.046 102.5C112.854 103.382 112.65 104.3 112.446 105.176C112.044 106.976 111.63 108.818 111.216 110.69L108.618 122.294C108.575 122.557 108.498 122.813 108.39 123.056C108.274 123.306 108.106 123.529 107.898 123.71C107.488 124.076 106.953 124.269 106.404 124.25H86.484H76.464C76.0549 124.285 75.6435 124.221 75.264 124.064C74.8906 123.894 74.577 123.616 74.364 123.266C74.1485 122.926 74.0417 122.528 74.058 122.126C74.1009 121.755 74.165 121.386 74.25 121.022L75.096 116.918C76.17 111.698 77.046 107.468 77.652 104.534C77.958 103.082 78.198 101.954 78.366 101.168C78.45 100.796 78.51 100.508 78.558 100.298C78.5774 100.198 78.6035 100.1 78.636 100.004C78.636 100.004 78.636 100.106 78.588 100.304C78.54 100.502 78.498 100.808 78.426 101.18C78.276 101.966 78.054 103.1 77.772 104.558C77.172 107.498 76.35 111.758 75.312 116.96C75.048 118.268 74.772 119.642 74.49 121.07C74.4063 121.42 74.3442 121.775 74.304 122.132C74.293 122.488 74.388 122.84 74.5771 123.142C74.7661 123.445 75.0407 123.684 75.366 123.83C75.7111 123.973 76.0862 124.029 76.458 123.992H86.478H97.554H106.41C106.884 124.014 107.348 123.848 107.7 123.53C107.874 123.376 108.015 123.188 108.114 122.978C108.207 122.754 108.275 122.521 108.318 122.282C109.212 118.31 110.082 114.428 110.922 110.678C111.342 108.806 111.756 106.964 112.158 105.164C112.362 104.264 112.566 103.364 112.758 102.488C112.854 102.05 112.956 101.612 113.052 101.174C113.191 100.774 113.211 100.343 113.112 99.932C113.004 99.5415 112.768 99.1988 112.441 98.9593C112.115 98.7198 111.717 98.5974 111.312 98.612H108.768H103.902H95.172L82.524 98.564H80.544C80.0626 98.5592 79.5974 98.7372 79.242 99.062C78.9618 99.3097 78.7543 99.6292 78.642 99.986V99.986Z" fill="#455A64"/>
<path d="M96.738 109.922C96.738 109.922 100.404 116.162 100.782 116.99C101.16 117.818 102.258 119.09 102.33 119.876C102.402 120.662 103.278 125.156 103.2 126.782C103.066 128.037 102.738 129.264 102.228 130.418L97.188 129.164C96.3985 128.44 95.7602 127.568 95.31 126.596C94.9241 125.56 94.2521 124.655 93.372 123.986C92.73 123.494 90.198 121.904 89.898 121.328C89.787 121.142 89.7284 120.93 89.7284 120.713C89.7284 120.496 89.787 120.284 89.898 120.098C89.898 120.098 88.698 119.534 88.53 118.898C88.362 118.262 88.53 117.272 89.856 117.878C91.182 118.484 96.054 121.964 96.546 121.586C97.038 121.208 96.432 120.29 96.432 120.29C96.432 120.29 91.254 115.574 90.99 114.74C90.726 113.906 91.482 112.736 92.688 113.756C93.894 114.776 97.872 118.784 98.286 118.784C98.7 118.784 98.25 117.614 98.25 117.614C98.25 117.614 96.21 113.228 95.85 112.058C95.49 110.888 95.718 109.316 96.738 109.922Z" fill="#C17560"/>
<path d="M113.52 99.716H113.37H112.938L111.264 99.746L105.114 99.794L84.8341 99.842H81.9001C81.6829 99.8191 81.4634 99.8432 81.2564 99.9126C81.0493 99.9819 80.8596 100.095 80.7001 100.244C80.5453 100.391 80.4262 100.572 80.3521 100.772C80.2921 100.964 80.2501 101.222 80.1961 101.438C79.7821 103.238 79.3981 105.038 79.0381 106.7C78.3301 110.048 77.6941 113.072 77.1601 115.622C76.6261 118.172 76.1521 120.206 75.8161 121.622C75.6481 122.306 75.5101 122.822 75.4141 123.242L75.3001 123.662C75.2923 123.712 75.2761 123.761 75.2521 123.806C75.2441 123.756 75.2441 123.706 75.2521 123.656C75.2521 123.542 75.3001 123.404 75.3361 123.23L75.6781 121.592L76.9261 115.592C77.4421 113.042 78.0541 110.012 78.7261 106.658C79.0741 104.978 79.4521 103.214 79.8661 101.39C79.9261 101.156 79.9501 100.946 80.0341 100.688C80.121 100.442 80.265 100.22 80.4541 100.04C80.644 99.8621 80.8694 99.7262 81.1155 99.6415C81.3616 99.5567 81.6228 99.5248 81.8821 99.548H84.8161L105.096 99.596L111.246 99.644L112.92 99.674H113.352C113.41 99.6786 113.467 99.6928 113.52 99.716Z" fill="#455A64"/>
<path d="M89.022 138.146C89.0476 137.975 89.1003 137.809 89.178 137.654C89.3684 137.23 89.6037 136.828 89.88 136.454C90.8037 135.186 92.1298 134.268 93.642 133.85C94.0913 133.732 94.5519 133.661 95.016 133.64L94.896 133.712C95.58 132.464 96.096 131.276 96.516 130.472C96.7156 130.028 96.9399 129.595 97.188 129.176C97.0818 129.655 96.9165 130.118 96.696 130.556C96.33 131.396 95.856 132.56 95.154 133.88L95.118 133.94H95.028C94.5864 133.965 94.1483 134.034 93.72 134.144C92.2729 134.555 90.9909 135.409 90.054 136.586C89.334 137.48 89.076 138.2 89.022 138.146Z" fill="#6F4439"/>
<path d="M95.5441 123.464C94.533 123.036 93.5664 122.509 92.6581 121.892C91.6934 121.369 90.783 120.752 89.9401 120.05C90.9481 120.483 91.9125 121.011 92.8201 121.628C93.7824 122.155 94.6943 122.77 95.5441 123.464Z" fill="#6F4439"/>
<path d="M97.2001 104.978C97.1198 105.154 96.9903 105.303 96.8273 105.407C96.6642 105.511 96.4745 105.566 96.2811 105.564C96.0877 105.563 95.8988 105.506 95.7373 105.399C95.5757 105.293 95.4484 105.142 95.3708 104.965C95.2931 104.788 95.2683 104.592 95.2995 104.401C95.3306 104.21 95.4164 104.032 95.5463 103.889C95.6763 103.746 95.845 103.643 96.0319 103.594C96.2189 103.544 96.4162 103.55 96.6001 103.61C96.8591 103.714 97.0669 103.916 97.179 104.172C97.2912 104.427 97.2987 104.717 97.2001 104.978V104.978Z" fill="#E0E0E0"/>
<path d="M52.2 81.104C52.0507 80.9283 51.9384 80.7242 51.87 80.504C51.6551 79.9 51.6054 79.2496 51.726 78.62C51.8153 78.1492 52.0004 77.7017 52.2698 77.3054C52.5391 76.9091 52.8871 76.5723 53.292 76.316C53.7716 76.0083 54.3157 75.8153 54.882 75.752C55.1883 75.7087 55.5 75.725 55.8 75.8C55.9732 75.839 56.1322 75.9253 56.2593 76.0492C56.3864 76.1731 56.4767 76.3299 56.52 76.502C56.539 76.5947 56.5392 76.6902 56.5207 76.7829C56.5021 76.8757 56.4652 76.9638 56.412 77.042C56.3123 77.1865 56.1783 77.304 56.022 77.384C55.7324 77.5277 55.4041 77.574 55.086 77.516C54.8079 77.4681 54.5457 77.3532 54.3219 77.1814C54.0981 77.0095 53.9194 76.7858 53.8013 76.5295C53.6832 76.2733 53.6292 75.9921 53.644 75.7103C53.6587 75.4285 53.7418 75.1545 53.886 74.912C54.0949 74.5112 54.4303 74.1907 54.84 74C55.1452 73.8874 55.4713 73.8425 55.7955 73.8684C56.1198 73.8943 56.4346 73.9904 56.718 74.15C56.9299 74.2519 57.1118 74.4069 57.246 74.6C57.246 74.6 57.054 74.444 56.646 74.258C56.3765 74.1293 56.0832 74.058 55.7847 74.0487C55.4862 74.0394 55.189 74.0923 54.912 74.204C54.5435 74.3741 54.2432 74.6638 54.06 75.026C53.954 75.2268 53.8921 75.4479 53.8787 75.6745C53.8652 75.9012 53.9005 76.1281 53.982 76.34C54.0862 76.565 54.2432 76.7616 54.4395 76.9131C54.6359 77.0645 54.8659 77.1664 55.11 77.21C55.3632 77.2546 55.624 77.2168 55.854 77.102C55.9616 77.0596 56.0525 76.9835 56.1131 76.885C56.1737 76.7866 56.2007 76.6711 56.19 76.556C56.1565 76.4406 56.0925 76.3363 56.005 76.254C55.9174 76.1717 55.8093 76.1143 55.692 76.088C55.428 76.0308 55.1561 76.0187 54.888 76.052C54.3678 76.1094 53.8673 76.2837 53.424 76.562C53.0435 76.7928 52.7139 77.0985 52.455 77.4605C52.1961 77.8225 52.0135 78.2333 51.918 78.668C51.7875 79.2627 51.802 79.88 51.96 80.468C52.104 80.876 52.2 81.092 52.2 81.104Z" fill="#263238"/>
</svg>
