<svg width="100%" height="100%" viewBox="0 0 25 23" fill="none" xmlns="http://www.w3.org/2000/svg">
<path d="M17.3611 4.16667V4.19705C17.1311 4.17969 16.901 4.16667 16.6667 4.16667H11.1111C10.395 4.16667 9.70052 4.25781 9.03646 4.42708C9.03212 4.34028 9.02778 4.25347 9.02778 4.16667C9.02778 1.86632 10.8941 0 13.1944 0C15.4948 0 17.3611 1.86632 17.3611 4.16667ZM16.6667 5.55556C16.8186 5.55556 16.9705 5.5599 17.1181 5.56858C17.3003 5.5816 17.4826 5.59896 17.6649 5.625C18.4288 4.73524 19.566 4.16667 20.8333 4.16667H22.2222L21.4062 7.42622C22.092 8.06858 22.6519 8.84983 23.0339 9.72222H23.6111C24.3793 9.72222 25 10.3429 25 11.1111V15.2778C25 16.046 24.3793 16.6667 23.6111 16.6667H22.2222C21.8273 17.1918 21.3585 17.6606 20.8333 18.0556V20.8333C20.8333 21.6016 20.2127 22.2222 19.4444 22.2222H18.0556C17.2873 22.2222 16.6667 21.6016 16.6667 20.8333V19.4444H11.1111V20.8333C11.1111 21.6016 10.4905 22.2222 9.72222 22.2222H8.33333C7.5651 22.2222 6.94444 21.6016 6.94444 20.8333V18.0556C5.42969 16.9184 4.3967 15.178 4.20139 13.1944H2.95139C1.31944 13.1944 0 11.875 0 10.2431C0 8.61111 1.31944 7.29167 2.95139 7.29167H3.125C3.70226 7.29167 4.16667 7.75608 4.16667 8.33333C4.16667 8.91059 3.70226 9.375 3.125 9.375H2.95139C2.47396 9.375 2.08333 9.76562 2.08333 10.2431C2.08333 10.7205 2.47396 11.1111 2.95139 11.1111H4.30556C4.83073 8.51562 6.8099 6.44531 9.3533 5.78125C9.91319 5.63368 10.5035 5.55556 11.1111 5.55556H16.6667V5.55556ZM19.4444 11.4583C19.4444 10.8811 18.98 10.4167 18.4028 10.4167C17.8255 10.4167 17.3611 10.8811 17.3611 11.4583C17.3611 12.0356 17.8255 12.5 18.4028 12.5C18.98 12.5 19.4444 12.0356 19.4444 11.4583Z" fill="#9A8CC6"/>
</svg>
