<svg width="100%" height="100%" viewBox="0 0 56 19" fill="none" xmlns="http://www.w3.org/2000/svg">
<path d="M38.2561 13.7574C37.4213 12.9211 36.9395 11.796 36.9104 10.6147C36.8814 9.43332 37.3072 8.28594 38.0999 7.40956C38.8926 6.53318 39.9916 5.99478 41.17 5.90557C42.3483 5.81637 43.5159 6.18318 44.4315 6.93023L43.1149 8.24684C42.7016 7.95314 42.2154 7.77886 41.7097 7.74307C41.2039 7.70729 40.698 7.81138 40.2475 8.04395C39.797 8.27652 39.4191 8.6286 39.1554 9.06162C38.8916 9.49463 38.7521 9.99189 38.7521 10.4989C38.7522 11.0059 38.8918 11.5032 39.1556 11.9361C39.4194 12.3691 39.7973 12.7212 40.2479 12.9537C40.6984 13.1862 41.2043 13.2902 41.7101 13.2543C42.2158 13.2185 42.7019 13.0441 43.1152 12.7504L44.4315 14.0666C43.5462 14.7882 42.4248 15.156 41.2841 15.0988C40.1435 15.0416 39.0648 14.5639 38.2561 13.7574ZM45.0836 13.4152L43.767 12.0986C44.0991 11.6311 44.2775 11.0719 44.2774 10.4985C44.2774 9.92515 44.0988 9.36599 43.7667 8.89862L45.0833 7.58202C45.7542 8.40586 46.1206 9.43582 46.1207 10.4983C46.1209 11.5608 45.7547 12.5909 45.0839 13.4148L45.0836 13.4152Z" fill="white"/>
<path d="M45.0839 13.4174L43.767 12.1011C44.0991 11.6337 44.2775 11.0745 44.2774 10.5011C44.2773 9.92773 44.0988 9.36857 43.7666 8.9012L45.0832 7.5846C45.7542 8.40844 46.1206 9.43841 46.1207 10.5009C46.1209 11.5634 45.7547 12.5934 45.0839 13.4174Z" fill="#9A8CC6"/>
<path d="M1.44 15V3.8H8.08V5.112H2.96V8.536H7.232V9.784H2.96V15H1.44ZM9.43625 15V6.68H10.8763V15H9.43625ZM10.1562 5.256C9.87892 5.256 9.63892 5.15467 9.43625 4.952C9.24425 4.74933 9.14825 4.51467 9.14825 4.248C9.14825 3.93867 9.23892 3.69333 9.42025 3.512C9.60158 3.33067 9.84692 3.24 10.1562 3.24C10.4336 3.24 10.6683 3.34133 10.8603 3.544C11.0629 3.736 11.1643 3.97067 11.1643 4.248C11.1643 4.54667 11.0736 4.792 10.8923 4.984C10.7109 5.16533 10.4656 5.256 10.1562 5.256ZM13.4363 15V6.68H14.8283V8.072C15.1269 7.624 15.5056 7.25067 15.9643 6.952C16.4336 6.64267 16.9883 6.488 17.6283 6.488C18.5669 6.488 19.2656 6.77067 19.7243 7.336C20.1936 7.90133 20.4283 8.648 20.4283 9.576V15H18.9883V9.736C18.9883 9.13867 18.8443 8.65867 18.5563 8.296C18.2789 7.93333 17.8896 7.752 17.3883 7.752C16.8976 7.752 16.4336 7.928 15.9963 8.28C15.5589 8.62133 15.1856 9.02667 14.8763 9.496V15H13.4363ZM25.817 15.192C25.017 15.192 24.3823 14.9307 23.913 14.408C23.4543 13.8747 23.225 13.1173 23.225 12.136V8.232H21.785V6.984H23.257L23.561 4.36H24.665V6.984H26.969V8.232H24.665V12.248C24.665 12.8667 24.793 13.2987 25.049 13.544C25.3157 13.7893 25.6303 13.912 25.993 13.912C26.2597 13.912 26.5103 13.8693 26.745 13.784C26.9903 13.6987 27.2143 13.5973 27.417 13.48L27.817 14.632C27.6037 14.76 27.3157 14.8827 26.953 15C26.5903 15.128 26.2117 15.192 25.817 15.192ZM32.2799 15.192C31.0852 15.192 30.1359 14.8133 29.4319 14.056C28.7385 13.288 28.3919 12.216 28.3919 10.84C28.3919 10.008 28.5465 9.26667 28.8559 8.616C29.1759 7.95467 29.6185 7.43733 30.1839 7.064C30.7492 6.68 31.4052 6.488 32.1519 6.488C32.9519 6.488 33.6132 6.664 34.1359 7.016C34.6692 7.35733 35.0692 7.82133 35.3359 8.408C35.6025 8.99467 35.7359 9.64 35.7359 10.344C35.7359 10.7173 35.7199 11.08 35.6879 11.432H29.8639C29.9599 12.2107 30.2319 12.8187 30.6799 13.256C31.1279 13.6933 31.7199 13.912 32.4559 13.912C32.9359 13.912 33.3679 13.864 33.7519 13.768C34.1359 13.6613 34.5039 13.528 34.8559 13.368L35.1919 14.6C34.8079 14.7707 34.3759 14.9093 33.8959 15.016C33.4159 15.1333 32.8772 15.192 32.2799 15.192ZM29.8479 10.264H34.4079C34.4079 9.45333 34.2052 8.82933 33.7999 8.392C33.3945 7.95467 32.8345 7.736 32.1199 7.736C31.5012 7.736 30.9892 7.95467 30.5839 8.392C30.1785 8.81867 29.9332 9.44267 29.8479 10.264ZM47.2488 15V3.16H48.6888V8.008C48.9874 7.57067 49.3661 7.208 49.8248 6.92C50.2834 6.632 50.8221 6.488 51.4408 6.488C52.3794 6.488 53.0781 6.77067 53.5368 7.336C54.0061 7.90133 54.2408 8.648 54.2408 9.576V15H52.8008V9.736C52.8008 9.13867 52.6621 8.65867 52.3848 8.296C52.1074 7.93333 51.7181 7.752 51.2168 7.752C50.7261 7.752 50.2568 7.928 49.8088 8.28C49.3714 8.62133 48.9981 9.02667 48.6888 9.496V15H47.2488Z" fill="white"/>
</svg>
